<svg width="76" height="98" viewBox="0 0 76 98" fill="none" xmlns="http://www.w3.org/2000/svg">
<path d="M59.7945 0.558743H75.661V16.838H59.7945V0.558743ZM75.6643 24.9792V61.7692C75.8105 63.1895 75.8918 64.834 75.8918 66.5013C75.8918 73.466 74.4423 80.0895 71.8325 86.0922L71.956 85.7738C69.1253 91.094 64.6143 95.2085 59.1413 97.461L58.9723 97.522L44.2368 90.5155C49.6675 88.5882 54.0518 84.8378 56.7493 80.018L56.8078 79.901C59.0763 75.3672 59.7945 70.112 59.7945 56.306V24.976H75.661L75.6643 24.9792ZM34.5453 37.4462C33.0438 36.9197 31.3083 36.6175 29.5078 36.6175C29.3973 36.6175 29.2835 36.6175 29.173 36.6207H29.1893C28.9488 36.6045 28.666 36.5947 28.3833 36.5947C21.7663 36.5947 16.4005 41.9605 16.4005 48.5775C16.4005 49.1592 16.4428 49.7345 16.524 50.2935L16.5175 50.2285C16.4493 50.703 16.407 51.2522 16.407 51.8112C16.407 58.1942 21.581 63.3682 27.964 63.3682C28.3605 63.3682 28.7505 63.3487 29.1373 63.3097L29.0885 63.313C31.0158 63.313 32.9073 63.1635 34.7533 62.8742L34.5485 62.9002L34.5453 37.4462ZM34.5453 0.474243H50.4118V73.934C44.2335 75.2698 37.1225 76.0562 29.836 76.0985H29.8035C10.4303 76.0985 0.332514 67.3398 0.332514 50.5405C0.306514 50.105 0.290314 49.598 0.290314 49.0877C0.290314 35.1062 11.6263 23.7702 25.6078 23.7702C26.3228 23.7702 27.0313 23.7995 27.73 23.858L27.639 23.8515C27.7853 23.8482 27.9543 23.8482 28.1265 23.8482C30.408 23.8482 32.618 24.1505 34.7175 24.716L34.5388 24.677L34.5453 0.474243Z" fill="#310047" fill-opacity="0.7"/>
</svg>
