<svg width="108" height="108" viewBox="0 0 108 108" fill="none" xmlns="http://www.w3.org/2000/svg">
<g clip-path="url(#clip0_102_20)">
<path d="M108 39.465H96.894V73.5075H90.4815V39.465H79.4025V33.885H108V39.465ZM77.166 73.5075H55.4715V33.885H76.3065V39.465H61.884V50.688H75.1725V56.241H61.884V67.959H77.166V73.5075ZM46.98 73.5075H39.969L21.51 44.3835C21.0483 43.6587 20.6594 42.8899 20.349 42.0885H20.187C20.331 42.939 20.403 44.7525 20.403 47.5335V73.5075H14.2065V33.885H21.672L39.5145 62.325C40.266 63.4995 40.752 64.314 40.968 64.755H41.076C40.896 63.7065 40.806 61.9245 40.806 59.4225V33.8805H46.98V73.5075ZM7.8165 70.389C7.8165 70.8793 7.71532 71.3647 7.51875 71.8176C7.32217 72.2705 7.03405 72.6819 6.67087 73.0284C6.30769 73.3748 5.87656 73.6495 5.40215 73.8368C4.92773 74.024 4.41932 74.1201 3.906 74.1195C3.39266 74.1195 2.88436 74.0229 2.41015 73.8351C1.93595 73.6474 1.50514 73.3722 1.14238 73.0253C0.779609 72.6784 0.491994 72.2666 0.295976 71.8135C0.0999584 71.3604 -0.000616386 70.8748 2.84206e-06 70.3845C0.00125148 69.3959 0.413326 68.4482 1.14571 67.7496C1.87809 67.0509 2.87088 66.6585 3.906 66.6585C4.41932 66.6579 4.92773 66.754 5.40215 66.9412C5.87656 67.1285 6.30769 67.4032 6.67087 67.7496C7.03405 68.0961 7.32217 68.5075 7.51875 68.9604C7.71532 69.4133 7.8165 69.8987 7.8165 70.389Z" fill="#310047" fill-opacity="0.7"/>
</g>
<defs>
<clipPath id="clip0_102_20">
<rect width="108" height="108" fill="white"/>
</clipPath>
</defs>
</svg>
