<svg width="104" height="104" viewBox="0 0 104 104" fill="none" xmlns="http://www.w3.org/2000/svg">
<g clip-path="url(#clip0_102_28)">
<path d="M104 80.548C102.486 81.1205 100.816 81.1192 99.3028 80.5445C97.79 79.9697 96.5399 78.8611 95.7883 77.428L80.8383 56.7537L78.6717 53.8633L61.3253 77.454C60.6189 78.827 59.4366 79.8958 57.9995 80.4604C56.5624 81.0251 54.9688 81.047 53.5167 80.522L75.868 50.5353L55.0767 23.4477C56.5716 22.9089 58.2066 22.9018 59.7062 23.4274C61.2058 23.9531 62.4785 24.9795 63.31 26.3337L78.806 47.2637L94.3886 26.4203C95.1005 25.0717 96.2831 24.0317 97.7116 23.4981C99.1401 22.9644 100.715 22.9742 102.137 23.5257L94.068 34.2333L83.1393 48.4597C82.8358 48.7304 82.593 49.0622 82.4267 49.4334C82.2604 49.8045 82.1744 50.2066 82.1744 50.6133C82.1744 51.02 82.2604 51.4221 82.4267 51.7933C82.593 52.1645 82.8358 52.4963 83.1393 52.767L103.957 80.5523L104 80.548ZM0.00865762 50.1627L1.82866 41.171C6.82932 23.3913 27.2133 15.9943 41.236 27.001C49.4477 33.4533 51.4973 42.588 51.0943 52.884H4.83599C4.08632 71.2703 17.355 82.3723 34.32 76.7C37.0702 75.71 39.5319 74.0534 41.4845 71.8784C43.4372 69.7034 44.8199 67.0779 45.5087 64.2373C46.4057 61.3513 47.8833 60.8573 50.596 61.6893C50.144 65.2097 48.8995 68.5816 46.9563 71.5516C45.0131 74.5216 42.4217 77.0123 39.377 78.8363C34.3478 81.5873 28.5776 82.6776 22.8914 81.9514C17.2051 81.2253 11.8941 78.7198 7.71766 74.7933C3.58812 70.1453 1.09232 64.2741 0.610991 58.0753C0.610991 57.057 0.264324 56.1037 0.0303243 55.1893C0.00922975 53.5153 -0.000881583 51.8412 -9.05129e-06 50.167L0.00865762 50.1627ZM4.89232 48.9233H46.7263C46.4663 35.594 38.0553 26.1387 26.8363 26.052C14.3477 25.8787 5.41232 35.126 4.86199 48.8627L4.89232 48.9233Z" fill="#310047" fill-opacity="0.7"/>
</g>
<defs>
<clipPath id="clip0_102_28">
<rect width="104" height="104" fill="white"/>
</clipPath>
</defs>
</svg>
