<svg width="50" height="50" viewBox="0 0 50 50" fill="none" xmlns="http://www.w3.org/2000/svg">
<path fill-rule="evenodd" clip-rule="evenodd" d="M22.1911 3.89105H13.9046C9.32803 3.89105 5.61801 6.46062 5.61801 9.63034C5.61801 12.8001 9.32803 15.3696 13.9046 15.3696H22.1911V3.89105ZM22.1911 0H27.8091H36.0957C43.7752 0 50 4.31163 50 9.63034C50 12.769 47.8326 15.557 44.4769 17.3152C47.8326 19.0733 50 21.8613 50 25C50 30.3187 43.7752 34.6304 36.0957 34.6304C32.9907 34.6304 30.1234 33.9255 27.8091 32.7341V34.6304V40.3697C27.8091 45.6883 21.5838 50 13.9046 50C6.22526 50 0 45.6883 0 40.3697C0 37.2308 2.16788 34.443 5.52318 32.6848C2.16788 30.9266 0 28.1387 0 25C0 21.8613 2.16793 19.0733 5.52329 17.3152C2.16793 15.557 0 12.769 0 9.63034C0 4.31163 6.22526 0 13.9046 0H22.1911ZM27.8091 3.89105V15.3696H36.0957C40.6724 15.3696 44.382 12.8001 44.382 9.63034C44.382 6.46062 40.6724 3.89105 36.0957 3.89105H27.8091ZM13.9046 30.7392H22.1911V25.0148V25V24.9852V19.2607H13.9046C9.32803 19.2607 5.61801 21.8303 5.61801 25C5.61801 28.1622 9.31028 30.727 13.8717 30.7393L13.9046 30.7392ZM5.61801 40.3697C5.61801 37.2074 9.31028 34.6426 13.8717 34.6303L13.9046 34.6304H22.1911V40.3697C22.1911 43.5393 18.4811 46.109 13.9046 46.109C9.32803 46.109 5.61801 43.5393 5.61801 40.3697ZM27.8091 24.9886C27.8181 21.8241 31.5247 19.2607 36.0957 19.2607C40.6724 19.2607 44.382 21.8303 44.382 25C44.382 28.1697 40.6724 30.7393 36.0957 30.7393C31.5247 30.7393 27.8181 28.1759 27.8091 25.0115V24.9886Z" fill="#310047" fill-opacity="0.7"/>
</svg>
