<svg width="54" height="54" viewBox="0 0 54 54" fill="none" xmlns="http://www.w3.org/2000/svg">
<g clip-path="url(#clip0_5_86)">
<path d="M41.824 0H12.176C5.462 0 0 5.462 0 12.176V41.824C0 48.538 5.462 54 12.176 54H41.824C48.538 54 54 48.538 54 41.824V12.176C54 5.462 48.538 0 41.824 0ZM52 41.824C52 47.435 47.435 52 41.824 52H12.176C6.565 52 2 47.435 2 41.824V12.176C2 6.565 6.565 2 12.176 2H41.824C47.435 2 52 6.565 52 12.176V41.824Z" fill="#310047" fill-opacity="0.7"/>
<path d="M19.84 12L11.6 40H14.72L17.36 30.96H25.68L28.44 40H31.68L23.16 12H19.84ZM18.12 28L21.48 16.64L24.96 28H18.12Z" fill="#310047" fill-opacity="0.7"/>
<path d="M36.859 11.6C36.419 11.6 36.032 11.767 35.699 12.1C35.365 12.434 35.199 12.814 35.199 13.241C35.199 13.668 35.365 14.048 35.699 14.381C36.032 14.715 36.419 14.881 36.859 14.881C37.299 14.881 37.679 14.721 37.999 14.402C38.319 14.082 38.479 13.695 38.479 13.242C38.479 12.789 38.32 12.4 38 12.08C37.68 11.76 37.3 11.6 36.859 11.6Z" fill="#310047" fill-opacity="0.7"/>
<path d="M38.239 19.96H35.359V40H38.239V19.96Z" fill="#310047" fill-opacity="0.7"/>
</g>
<defs>
<clipPath id="clip0_5_86">
<rect width="54" height="54" fill="white"/>
</clipPath>
</defs>
</svg>
