<svg width="98" height="98" viewBox="0 0 98 98" fill="none" xmlns="http://www.w3.org/2000/svg">
<path d="M59.439 82.9528L58.5062 84.2917L58.1813 85.9557L58.5062 87.6198L59.439 88.9588L60.778 89.8915L62.442 90.2165L64.106 89.8915L65.445 88.9588L66.3778 87.6198L66.7028 85.9557L66.3778 84.2917L65.445 82.9528L64.106 82.02L62.442 81.695L60.778 82.02L59.439 82.9528ZM85.7153 25.08L86.8528 25.3238L88.1528 25.8113L89.573 26.5425L91.0355 27.6378L92.498 29.058L93.9183 30.9658L95.2183 33.361L96.3558 36.325L97.207 39.9L97.776 44.125L97.978 49.1203L97.734 54.1155L97.084 58.3405L96.1088 61.8343L94.8087 64.717L93.3463 67.031L91.7213 68.8575L90.015 70.1965L88.3087 71.1715L86.6837 71.8215L85.2213 72.1855L83.9213 72.387L82.9463 72.4683L82.2963 72.4293H48.9122V75.7605H72.6308L72.6698 86.9698L72.751 88.4323L72.5495 89.8135L72.1042 91.0713L71.4153 92.2477L70.4012 93.2617L69.1435 94.2368L67.5997 95.0493L65.8123 95.7383L63.742 96.346L61.3858 96.8725L58.7858 97.236L55.903 97.519L52.7765 97.682L49.364 97.721L44.2062 97.558L39.861 96.9895L36.2047 96.177L33.2407 95.163L30.8455 93.9443L29.019 92.6052L27.6377 91.224L26.6237 89.8428L25.9737 88.5038L25.5675 87.285L25.405 86.271L25.3237 85.4585L25.3628 84.932V63.2448L25.5675 60.6448L26.094 58.451L26.9455 56.5823L28.0017 55.0385L29.2205 53.7385L30.5595 52.7635L31.9797 51.951L33.4 51.3823L34.739 50.976L35.9577 50.7323L37.014 50.5698L37.8655 50.4885L38.392 50.4495H62.1105L64.912 50.248L67.3073 49.6792L69.3385 48.8278L71.0025 47.6903L72.3415 46.3903L73.4367 44.97L74.2492 43.5075L74.857 42.045L75.2633 40.6248L75.546 39.3247L75.7085 38.1873L75.7897 37.3358V24.9078H84.2787L84.8475 24.9468L85.7153 25.08ZM32.5518 9.038L31.619 10.377L31.294 12.041L31.619 13.705L32.5518 15.0863L33.8907 15.98L35.5547 16.344L37.2188 15.9768L38.5577 15.083L39.4905 13.7018L39.8155 12.0378L39.4905 10.3737L38.5577 9.0348L37.2188 8.141L35.5547 7.777L33.8907 8.141L32.5518 9.038ZM58.139 0.994251L61.7953 1.80675L64.7593 2.863L67.1545 4.08175L68.981 5.38175L70.3623 6.763L71.3763 8.1443L72.0262 9.4833L72.4325 10.702L72.595 11.7583L72.6763 12.5708L72.6373 13.0973V34.7845L72.4358 37.3423L71.9092 39.575L71.0578 41.4438L70.0015 42.9875L68.7828 44.2453L67.4437 45.2593L66.0235 46.0295L64.6033 46.5983L63.2643 47.0045L62.0455 47.2873L60.9893 47.4497L60.1345 47.531H35.8895L33.088 47.7325L30.6927 48.3013L28.6615 49.195L26.9975 50.2902L25.6585 51.5903L24.5632 53.0105L23.7507 54.473L23.143 55.9745L22.7367 57.3948L22.454 58.6948L22.2915 59.79L22.2102 60.6415V73.0695H13.1525L12.301 72.9492L11.1635 72.6665L9.86351 72.179L8.44321 71.4478L6.98076 70.3915L5.51826 68.929L4.09801 67.0602L2.79801 64.665L1.66051 61.701L0.809007 58.126L0.240258 53.862L0.0387573 48.8667L0.282507 43.9138L0.932507 39.6888L1.90751 36.156L3.20751 33.2733L4.67001 30.9593L6.29501 29.1718L8.00131 27.8328L9.70751 26.8578L11.3325 26.2078L12.795 25.8015L14.095 25.6L15.07 25.561H15.72L15.9638 25.6H49.104V22.2297H25.3855L25.3465 11.0628L25.2652 9.5613L25.4667 8.18L25.912 6.92225L26.601 5.78475L27.615 4.7285L28.8727 3.79575L30.4165 2.98325L32.204 2.252L34.2742 1.64425L36.6305 1.15675L39.2305 0.7505L42.1132 0.506751L45.2398 0.34425L48.6522 0.263L53.81 0.467751L58.139 0.994251Z" fill="#310047" fill-opacity="0.7"/>
</svg>
