<svg width="104" height="104" viewBox="0 0 104 104" fill="none" xmlns="http://www.w3.org/2000/svg">
<g clip-path="url(#clip0_102_22)">
<path d="M70.5092 36.7315L59.0239 40.4818L49.0319 44.8919L46.2364 45.6299C45.5245 46.307 44.778 46.9929 43.9706 47.6874C43.0852 48.4513 42.2605 49.1459 41.6266 49.6493C40.9235 50.205 39.8817 51.2467 39.3522 51.9063C38.5622 52.896 37.9372 53.9464 37.668 54.7539C37.1905 56.2124 37.425 57.6881 38.3452 59.0512C39.5258 60.7873 41.8785 62.5583 44.6217 63.765C46.0195 64.3815 48.372 65.1714 50.143 65.6141C53.0858 66.3607 58.7808 67.1681 61.9147 67.2897C62.5483 67.3157 63.3991 67.3157 63.4338 67.2897C63.5033 67.2461 63.9895 66.3173 64.5538 65.1628C66.4811 61.2301 67.8701 57.5405 68.6253 54.3893C69.0767 52.4795 69.4326 49.9359 69.6669 46.9236C69.7278 46.0815 69.7537 43.2601 69.7016 42.305C69.6234 40.7425 69.4845 39.4751 69.2677 38.2336C69.2329 38.0513 69.2241 37.8863 69.2416 37.8777C69.2762 37.8516 69.3804 37.8169 70.7954 37.4088L70.5091 36.7318V36.7316H70.5092V36.7315ZM67.8875 38.2682C67.9917 38.2682 68.2694 40.9333 68.3388 42.6175C68.3562 42.9734 68.3474 43.2078 68.3301 43.2078C68.2608 43.2078 66.863 42.3832 65.8648 41.7582C64.9966 41.2112 63.3473 40.1173 63.0869 39.909C62.9999 39.8483 63.0085 39.8396 63.7205 39.5964C64.9271 39.1884 67.792 38.2682 67.8875 38.2682ZM62.0363 40.1955C62.1145 40.1955 62.314 40.3082 62.7915 40.6034C64.5798 41.7233 67.0107 43.0776 68.0524 43.5291C68.3735 43.668 68.4082 43.6158 67.6704 44.1194C66.0904 45.1959 64.1196 46.2549 61.7063 47.3227C61.2809 47.5137 60.9251 47.6613 60.9164 47.6613C60.8991 47.6613 60.951 47.4444 61.0204 47.1839C61.6021 45.0221 61.932 42.8345 61.9495 41.0809C61.9581 40.2127 61.9581 40.2127 62.0363 40.1868C62.0189 40.1955 62.0275 40.1955 62.0363 40.1955ZM60.8297 40.6555C60.8816 40.7075 60.847 42.6522 60.7775 43.1817C60.6212 44.4492 60.3781 45.6298 59.9789 46.9582C59.8834 47.2792 59.7965 47.5485 59.7793 47.5657C59.7444 47.6091 58.5551 46.4458 58.1644 45.9944C57.4872 45.2131 56.9578 44.4318 56.5671 43.6679C56.3674 43.2772 56.055 42.5133 56.081 42.4872C56.2198 42.3918 60.7949 40.6208 60.8297 40.6555ZM55.152 42.8866C55.1607 42.8866 55.1693 42.8866 55.1781 42.8952C55.1954 42.9126 55.2563 43.0515 55.3084 43.2077C55.5861 43.963 56.211 45.0742 56.7494 45.7861C57.3398 46.5675 58.1125 47.4008 58.7547 47.9477C58.9631 48.1213 59.154 48.2862 59.18 48.3123C59.2322 48.3644 59.2495 48.3557 57.8344 48.894C56.1939 49.519 54.4054 50.144 52.3566 50.8038C51.8672 50.9616 51.3782 51.1207 50.8897 51.2813C50.8114 51.3074 50.8375 51.2639 51.0632 50.9081C52.0789 49.3193 53.6241 46.2028 54.4923 43.9977C54.6399 43.6157 54.7874 43.2338 54.8135 43.147C54.8483 43.0254 54.8916 42.982 55.0044 42.9212C55.0652 42.904 55.126 42.8866 55.152 42.8866ZM53.4159 43.6071C53.4419 43.6246 52.9992 44.5533 52.5651 45.4041C51.723 47.0448 50.8028 48.6597 49.5701 50.6216C49.3617 50.9601 49.1621 51.2727 49.136 51.3074C49.0927 51.3682 49.0752 51.3508 48.9363 51.0817C48.6412 50.5 48.398 49.7534 48.2678 49.0676C48.1376 48.3904 48.1637 47.2098 48.3113 46.4806C48.4241 45.9424 48.4155 45.9511 48.6759 45.8209C49.7871 45.2566 53.3812 43.5724 53.4159 43.6071ZM68.391 44.2149V44.5794C68.391 46.5154 68.1827 49.1718 67.8787 51.1078C67.8266 51.4463 67.7831 51.724 67.7745 51.7328C67.7745 51.7328 67.5228 51.6635 67.2277 51.5765C65.9255 51.1685 64.5104 50.5695 63.2343 49.8664C62.3921 49.4063 61.1681 48.6509 61.2029 48.6162C61.2114 48.6076 61.5761 48.4166 62.0014 48.1908C63.7032 47.3054 65.3351 46.3504 66.7501 45.4042C67.2797 45.0482 68.0783 44.4754 68.2521 44.319L68.391 44.2149ZM46.8615 46.7844C46.8962 46.7844 46.8875 46.8538 46.8354 47.1663C46.8007 47.3921 46.7573 47.8088 46.74 48.0952C46.6704 49.3627 46.8789 50.3003 47.5039 51.5851C47.6776 51.9411 47.8166 52.2362 47.8077 52.2448C47.7469 52.297 42.0001 53.9812 40.1943 54.476C39.6561 54.6235 39.1874 54.7538 39.1525 54.7623C39.0918 54.7798 39.0831 54.7711 39.1091 54.6234C39.3087 53.3474 40.2811 51.6806 41.6353 50.2741C42.5382 49.3366 43.2588 48.7897 44.4915 48.0864C45.377 47.583 46.7399 46.8279 46.8441 46.793C46.8442 46.7844 46.8528 46.7844 46.8615 46.7844ZM60.4042 49.2064C60.4129 49.1978 60.6212 49.3107 60.8729 49.4582C62.7308 50.5348 65.3177 51.5331 67.5226 52.0453L67.7225 52.0887L67.4446 52.2448C66.29 52.8873 62.4963 54.4672 58.6159 55.9171C58.0515 56.1253 57.496 56.3338 57.3917 56.3771C57.2875 56.4205 57.192 56.4466 57.192 56.4379C57.192 56.4291 57.3484 56.1253 57.5479 55.7521C58.633 53.7207 59.727 51.2466 60.2825 49.5277C60.3522 49.3627 60.3954 49.2152 60.4042 49.2064ZM59.0239 49.6579C59.0327 49.6668 58.9632 49.8489 58.8763 50.0572C58.1211 51.889 57.1313 53.8858 55.8639 56.1255C55.5428 56.6985 55.2736 57.1586 55.2648 57.1586C55.2563 57.1586 54.9957 57.0023 54.6832 56.8113C52.8427 55.6827 51.2107 54.2938 50.143 52.9481L49.9867 52.7572L50.7766 52.5401C53.6067 51.7676 56.0113 50.9342 58.3988 49.9098C58.7374 49.7709 59.0153 49.6579 59.0239 49.6579ZM67.601 52.653C67.6096 52.8526 67.1669 54.641 66.8022 55.9344C66.4984 57.0195 66.2378 57.8704 65.7605 59.3721C65.5522 60.032 65.37 60.5788 65.3612 60.5788C65.3525 60.5788 65.3004 60.5702 65.2484 60.5529C62.6701 60.084 60.3608 59.4329 58.1905 58.5649C57.5828 58.3217 56.7147 57.931 56.6626 57.8877C56.6453 57.8701 57.1662 57.6272 57.8259 57.3407C61.7759 55.6132 65.8734 53.6512 67.2797 52.8092C67.4446 52.705 67.5749 52.653 67.601 52.653ZM47.7991 53.3301C47.8165 53.3474 46.7139 54.9362 45.1686 57.0978C44.6304 57.853 44.0054 58.7385 43.771 59.0683C43.5366 59.3983 43.1807 59.9192 42.981 60.2317L42.6163 60.796L42.2256 60.4661C41.7655 60.0841 40.9669 59.2681 40.611 58.8166C39.8643 57.8878 39.3609 56.9068 39.1612 56.0128C39.0657 55.596 39.0657 55.3875 39.1524 55.3616C39.2826 55.3269 41.6005 54.78 43.771 54.2763C44.9777 53.9986 46.3752 53.6688 46.8788 53.5472C47.3823 53.4255 47.7905 53.3301 47.7991 53.3301ZM48.9102 53.7555L49.1879 54.068C50.4382 55.4657 51.7143 56.4989 53.2596 57.4016C53.5374 57.558 53.7457 57.6968 53.7283 57.7056C53.6677 57.749 48.3633 59.6326 45.9065 60.4834C44.5263 60.9695 43.389 61.3602 43.3804 61.3602C43.3718 61.3602 43.2936 61.3082 43.2066 61.2474L43.0505 61.1345L43.3022 60.7699C44.1182 59.5892 45.1427 58.2958 47.3738 55.6046L48.9102 53.7555ZM55.838 58.7124C55.8465 58.7038 56.2285 58.8426 56.6972 59.0164C57.826 59.4417 58.72 59.7108 59.9181 60.0147C61.3939 60.388 63.5294 60.7526 64.7883 60.8568C64.9793 60.8741 65.0835 60.8915 65.0487 60.9176C64.9878 60.9523 63.7118 61.3777 62.7742 61.6729C61.281 62.1416 56.7234 63.4871 53.0078 64.555C52.322 64.7546 51.7316 64.9196 51.6969 64.9282C51.6102 64.9457 51.3236 64.8674 51.3236 64.8327C51.3236 64.8154 51.532 64.5463 51.7838 64.2512C53.0338 62.7579 54.2753 61.0912 55.3084 59.5112C55.5948 59.077 55.838 58.7211 55.838 58.7124ZM54.3099 58.7559C54.3186 58.7646 53.7023 59.7542 52.6259 61.4557C52.1657 62.1762 51.6535 62.9922 51.4712 63.2788C51.2975 63.5565 51.0371 63.9907 50.8896 64.2337L50.6378 64.6765L50.5076 64.6417C50.195 64.5549 47.9987 63.7822 47.417 63.5479C46.6964 63.2613 45.9499 62.9142 45.3942 62.619C44.6998 62.2457 43.8318 61.69 43.9011 61.6728C43.9185 61.6641 45.1078 61.3428 46.5402 60.9522C50.3426 59.919 52.4521 59.3201 53.8325 58.8861C54.0843 58.8079 54.3013 58.7471 54.3099 58.7559ZM65.1181 61.2907H65.1267C65.1615 61.3776 63.7552 65.2841 63.2428 66.5168C63.1301 66.7946 63.0869 66.8642 63.026 66.8553C62.8784 66.8468 60.8383 66.5603 59.5968 66.378C57.4353 66.0481 53.8065 65.4143 52.895 65.206L52.6867 65.1626L53.98 64.8673C56.7581 64.2423 58.095 63.9037 59.4492 63.487C61.1594 62.9662 62.8524 62.3151 64.5625 61.5165C64.8316 61.3949 65.0573 61.2994 65.1181 61.2907Z" fill="#310047" fill-opacity="0.7"/>
<path d="M58.668 9.95855C58.477 9.93265 55.3951 11.0438 53.4072 11.8511C50.7246 12.9451 48.6412 13.9869 47.3563 14.8895C46.879 15.2282 46.2798 15.8271 46.1845 16.0615C46.1498 16.1483 46.1323 16.2525 46.1323 16.3567L47.2957 17.4592L50.0649 18.3447L56.654 19.5253L64.1892 20.8189L64.2674 20.1678C64.2414 20.1678 64.224 20.1591 64.1982 20.1591L63.2082 20.0028L63.0087 19.6469C61.9843 17.8412 60.8557 15.6014 60.196 14.0909C59.6839 12.9189 59.1977 11.5647 58.9285 10.5924C58.7809 10.0021 58.7636 9.96736 58.6682 9.95871V9.95851H58.668V9.95855ZM58.529 10.4014H58.5379C58.5464 10.41 58.5812 10.6532 58.6159 10.9395C58.7634 12.1551 59.0327 13.3269 59.458 14.5944C59.7792 15.5494 59.7792 15.4973 59.4059 15.3844C58.5205 15.1414 54.5532 14.4556 51.6797 14.0562C51.2196 13.9954 50.8289 13.9347 50.8289 13.926C50.7942 13.8913 52.9036 12.7887 53.8325 12.3548C55.0219 11.8077 58.286 10.4448 58.529 10.4014ZM50.1603 14.2906L50.499 14.4033C52.3393 15.0285 56.9663 15.914 59.5187 16.1223C59.8051 16.1484 60.0483 16.1745 60.0568 16.1745C60.0655 16.1831 59.8226 16.3133 59.51 16.4609C58.2774 17.0772 56.923 17.8325 55.9854 18.4142C55.7077 18.5877 55.4558 18.7267 55.4212 18.7267C55.3865 18.7267 55.2042 18.692 55.0132 18.6659L54.666 18.6138L53.798 17.763C52.27 16.2786 51.072 15.1327 50.6119 14.6985L50.1603 14.2906ZM49.8132 14.5596L51.0372 16.0876C51.7056 16.9297 52.3827 17.7543 52.5305 17.9366C52.6779 18.119 52.7995 18.2666 52.7909 18.2753C52.7561 18.3013 51.02 17.9627 50.0996 17.7544C49.1534 17.5373 48.7628 17.4332 48.1811 17.2509L47.7036 17.0946V16.973C47.7123 16.3913 48.4503 15.5233 49.7003 14.6379L49.8132 14.5596ZM60.2132 16.6432C60.248 16.6432 60.2913 16.7213 60.3955 16.9557C60.6906 17.6067 61.611 19.3604 61.8365 19.6989C61.9062 19.8119 62.0275 19.8205 60.8036 19.6209C57.8607 19.1433 56.9144 18.9872 56.9144 18.9698C56.9144 18.9612 57.0012 18.9004 57.1141 18.8395C58.0256 18.3361 58.9458 17.6937 59.7619 17.0078C59.9616 16.8429 60.1439 16.6866 60.1785 16.6605C60.1871 16.6432 60.2046 16.6345 60.2132 16.6432Z" fill="#310047" fill-opacity="0.7"/>
<path d="M46.245 15.94C46.245 15.94 46.0542 16.2439 46.2364 16.6954C46.3494 16.9731 46.6792 17.3116 47.0525 17.6589C47.0525 17.6589 50.9156 21.4265 51.3844 21.9648C53.5199 24.4302 54.4488 26.861 54.5357 30.212C54.5878 32.365 54.1796 34.2574 53.164 36.4538C51.3583 40.3951 47.5472 44.7445 41.67 49.5713L42.5296 49.2847C43.0852 48.868 43.8405 48.4254 45.6114 47.453C49.7002 45.2131 54.3012 43.1557 59.9441 41.0375C68.0695 37.9816 81.4301 34.4049 89.0347 33.2417L89.8248 33.1201L89.7032 32.9291C89.0089 31.8526 88.5312 31.1842 87.9582 30.4724C86.2915 28.4062 84.2689 26.7308 81.7947 25.3418C78.3916 23.4407 73.9901 21.9562 68.4169 20.8537C67.3665 20.6452 65.0572 20.2459 63.1821 19.9595C59.2061 19.3432 56.6364 18.9178 53.8064 18.4316C52.7908 18.2579 51.2714 17.9975 50.2644 17.7806C49.7436 17.6676 48.7453 17.4333 47.964 17.1642C47.339 16.921 46.436 16.6779 46.245 15.94ZM48.4849 18.1104C48.4935 18.1018 48.6324 18.1537 48.8148 18.2145C49.1447 18.3273 49.57 18.4575 50.0737 18.5965C50.4547 18.7013 50.8367 18.8026 51.2196 18.9003C51.7404 19.0305 52.1744 19.152 52.1831 19.152C52.2439 19.2129 53.1208 22.0167 53.4159 23.0932C53.5286 23.5013 53.6156 23.8485 53.6069 23.8485C53.598 23.8573 53.5026 23.7096 53.3898 23.51C52.3741 21.7216 50.7681 19.9073 48.9102 18.4488C48.6673 18.2753 48.4849 18.119 48.4849 18.1104ZM52.7561 19.291C52.7995 19.291 52.9905 19.3171 53.2248 19.3691C54.7006 19.699 57.3484 20.2025 59.0412 20.489C59.3277 20.5324 59.5535 20.5846 59.5535 20.6018C59.5535 20.6193 59.4492 20.6799 59.319 20.7495C59.0326 20.897 57.8779 21.5827 57.496 21.8432C56.5323 22.4856 55.6643 23.1801 55.0392 23.8051C54.7875 24.0569 54.5703 24.2653 54.5703 24.2653C54.5703 24.2653 54.5184 24.1177 54.4748 23.9353C54.1625 22.7286 53.5113 20.9403 52.921 19.6816C52.8255 19.482 52.7473 19.2996 52.7473 19.2823C52.7473 19.2996 52.7473 19.291 52.7561 19.291ZM60.274 20.7234C60.3261 20.7407 60.4129 21.0359 60.5865 21.6869C60.9077 22.9458 61.0553 24.3521 61.0032 25.663C60.9858 26.0276 60.9685 26.3661 60.951 26.4096L60.9251 26.4964L60.4737 26.3488C59.5447 26.0537 58.0343 25.6108 56.7408 25.2463C56.0028 25.0466 55.4039 24.8643 55.4039 24.847C55.4039 24.7948 56.4805 23.7184 56.9405 23.3104C57.8171 22.5377 60.1958 20.6973 60.274 20.7234ZM60.873 20.8101C60.8991 20.7842 64.467 21.4004 66.0904 21.713C67.2972 21.9473 69.0508 22.312 69.1549 22.3555C69.207 22.3728 69.0246 22.4769 68.4429 22.7373C66.1512 23.7705 64.4496 24.6993 62.7569 25.8279C62.3141 26.1231 61.9408 26.3661 61.9322 26.3661C61.9235 26.3661 61.9148 26.1144 61.9148 25.8106C61.9148 24.1612 61.5849 22.4944 60.9771 21.088C60.9164 20.9491 60.8643 20.8189 60.873 20.8101ZM70.1011 22.6333C70.1272 22.6593 70.0143 23.3625 69.9101 23.7792C69.5976 25.0727 68.7556 26.9914 67.7226 28.7969C67.5401 29.1182 67.3752 29.3786 67.3578 29.3873C67.3406 29.3959 67.1061 29.2656 66.837 29.1094C65.83 28.5191 64.6841 27.9635 63.4339 27.4426C63.0868 27.295 62.7829 27.1734 62.7742 27.1562C62.7133 27.104 65.5087 25.2549 66.9846 24.3695C68.1566 23.6577 70.0663 22.5985 70.1011 22.6333ZM70.7608 22.7374C70.839 22.7374 72.419 23.1715 73.2436 23.4146C75.2838 24.0223 77.6276 24.8817 79.1556 25.5762L79.7892 25.8628L79.3466 25.9668C75.6138 26.8262 72.419 27.816 69.3371 29.0661C69.0854 29.1702 68.8596 29.2571 68.8424 29.2571C68.825 29.2571 68.9118 29.0574 69.0247 28.8143C69.9536 26.8437 70.5526 24.7862 70.7 23.0325C70.7089 22.8675 70.7347 22.7374 70.7608 22.7374ZM55.0306 26.3488C55.0565 26.3227 56.2633 26.6093 56.9144 26.7914C57.904 27.0693 60.0048 27.7724 60.0048 27.8246C60.0048 27.8332 59.7705 28.0329 59.4928 28.2761C58.3555 29.2223 57.2616 30.2205 55.9507 31.488C55.56 31.8615 55.2302 32.1653 55.2129 32.1653C55.1955 32.1653 55.1869 32.1131 55.1955 32.0437C55.3951 30.5851 55.3518 28.7101 55.074 26.8089C55.0479 26.5657 55.0219 26.3575 55.0306 26.3488ZM80.3884 26.3749C80.4056 26.3922 79.8327 27.295 79.4682 27.8072C78.9474 28.5537 78.1832 29.5436 76.4556 31.7139C75.5443 32.8597 74.5198 34.1533 74.1813 34.5873C73.8339 35.0213 73.5476 35.3859 73.5388 35.3859C73.5301 35.3859 73.4174 35.2297 73.2958 35.0388C72.3235 33.5803 71.1601 32.3041 69.7798 31.1582C69.5194 30.9411 69.233 30.7067 69.1375 30.6373C69.042 30.5679 68.9638 30.4984 68.9638 30.4898C68.9638 30.4638 70.4395 29.8299 71.5596 29.3786C73.5215 28.5798 76.1951 27.6249 78.2006 27.0085C79.2511 26.6787 80.371 26.3575 80.3884 26.3749ZM81.0568 26.5484C81.0914 26.5398 81.2999 26.644 81.5517 26.7914C83.6612 27.9981 85.7272 29.5522 87.3594 31.1495C87.8195 31.601 88.9567 32.7816 88.9393 32.7903C88.9393 32.7903 88.54 32.825 88.0713 32.8597C84.4165 33.1376 79.7374 33.9101 75.2404 34.9952C74.9366 35.0646 74.6676 35.1254 74.6501 35.1254C74.6329 35.1254 74.9714 34.7869 75.3968 34.3789C78.0358 31.8353 79.2426 30.2293 80.6662 27.3644C80.8658 26.9392 81.0395 26.5745 81.0568 26.5484C81.0482 26.5484 81.0482 26.5484 81.0568 26.5484ZM61.7237 28.5279C61.8453 28.5538 62.9739 29.0835 63.8246 29.5088C64.6059 29.8993 65.778 30.5245 65.8387 30.5765C65.8473 30.5851 65.4305 30.8022 64.9186 31.054C63.2864 31.87 61.8888 32.6426 60.4302 33.5281C60.0136 33.7799 59.6663 33.9883 59.6577 33.9883C59.6229 33.9883 59.6316 33.9534 59.866 33.5281C60.6474 32.1045 61.2723 30.403 61.6283 28.7448C61.6629 28.6146 61.6977 28.5279 61.7237 28.5279ZM60.5951 28.7361C60.6212 28.7622 60.3261 29.8299 60.1438 30.4116C59.7878 31.5141 59.1888 32.8944 58.6073 33.9362C58.4682 34.1791 58.2599 34.5351 58.147 34.7348L57.9301 35.082L57.4439 34.6133C56.8797 34.0664 56.4195 33.7278 55.8293 33.4239C55.5947 33.3025 55.4125 33.1982 55.4125 33.1809C55.4125 33.1115 56.897 31.7659 58.0342 30.7936C58.8502 30.0904 60.5691 28.7101 60.5951 28.7361ZM67.4969 31.575L67.9223 31.8527C68.8944 32.4865 70.0402 33.3285 70.9172 34.0664C71.4119 34.4743 72.3668 35.3339 72.558 35.5422L72.662 35.6552L71.959 35.8548C67.9829 36.9572 64.9098 37.9382 61.3244 39.2578C60.9251 39.4053 60.5865 39.5269 60.5604 39.5269C60.5084 39.5269 60.4649 39.5702 61.3592 38.7455C63.6511 36.6361 65.6824 34.3094 67.1929 32.0436L67.4969 31.575ZM65.6824 32.0264C65.6997 32.0437 64.5104 33.7191 63.7985 34.6654C62.9478 35.794 61.4372 37.6864 60.3955 38.9191C59.9615 39.4314 59.5883 39.8567 59.5708 39.8654C59.5447 39.8741 59.5361 39.7439 59.5361 39.5442C59.5361 38.4937 59.267 37.3738 58.7982 36.419C58.5985 36.0196 58.5637 35.9241 58.6073 35.8808C58.7722 35.7331 61.2984 34.292 62.8957 33.4327C63.9722 32.8597 65.6562 32.009 65.6824 32.0264ZM54.7093 34.7175C54.7354 34.7175 54.935 34.8216 55.1608 34.9432C55.7164 35.247 56.2112 35.5856 56.6539 35.9503C56.6712 35.9676 56.4456 36.15 56.1504 36.3669C55.3257 36.9572 54.0756 37.9035 53.3465 38.4852C52.5824 39.0929 52.5565 39.1102 52.6432 38.98C53.2162 38.1032 53.5026 37.6084 53.8066 36.9747C54.0756 36.4105 54.3447 35.742 54.5357 35.1603C54.6051 34.9085 54.692 34.7175 54.7093 34.7175ZM57.635 37.0093C57.6782 37.0007 57.7305 37.0788 57.9647 37.4261C58.4596 38.1639 58.8416 39.1537 58.9372 39.9523L58.9544 40.126L57.7652 40.5861C55.6382 41.4108 53.6763 42.2269 52.3479 42.8344C51.9748 43.0081 51.3236 43.3206 50.8983 43.5291C50.4729 43.746 50.1257 43.9109 50.1257 43.9023C50.1257 43.8937 50.3947 43.694 50.7246 43.4508C53.3205 41.5671 55.5688 39.5009 57.2529 37.4348C57.4353 37.2177 57.6003 37.018 57.6175 37.0094L57.635 37.0093ZM56.2894 37.3393C56.3241 37.374 55.3345 38.4938 54.6573 39.1796C52.9819 40.8899 51.3237 42.2269 49.2662 43.5291C49.0058 43.694 48.7714 43.8415 48.7453 43.8589C48.6845 43.8937 48.7626 43.8068 49.6655 42.8258C50.2386 42.2094 50.6725 41.6885 51.1674 41.0462C51.4973 40.6209 51.5581 40.5601 52.0356 40.2214C53.3118 39.3012 56.2546 37.3045 56.2894 37.3393Z" fill="#310047" fill-opacity="0.7"/>
<path d="M18.6969 73.2855C18.5368 73.2855 18.3766 73.3008 18.2179 73.3008C14.9833 73.4732 12.8017 74.8967 11.5261 77.6766C10.4352 80.1908 10.5543 83.4771 11.5384 86.0067C12.6827 88.4784 14.5318 89.7829 17.6183 90.2756C18.2713 90.3825 18.7092 90.741 19.974 92.2178L21.5302 94.0411H24.3528L22.476 92.1491C21.4385 91.1117 20.5994 90.2084 20.5994 90.129C20.5994 90.0497 20.9962 89.8758 21.4766 89.7294C23.0603 89.2501 24.3755 88.0266 25.2955 86.1515C26.0401 84.6458 26.1469 84.1803 26.2537 82.3069C26.5329 76.7305 23.5928 73.2441 18.6968 73.2839L18.6969 73.2855ZM21.1716 87.8682C19.7984 88.5333 17.8046 88.666 16.503 88.1885C15.1573 87.6943 13.8544 86.2967 13.2684 84.7146C12.617 82.9844 12.71 79.7928 13.4546 78.3554C14.6523 76.0669 16.236 75.0142 18.5505 75.0142C21.9833 75.0142 23.9361 77.1167 24.191 81.0682C24.3924 84.3668 23.2877 86.8414 21.1731 87.8668L21.1716 87.8682ZM69.9299 78.0488C68.7459 78.0488 67.8397 78.528 67.2293 79.4721L66.7502 80.2198V78.276H64.7013V89.9324H66.7489V86.2067C66.7489 82.7998 66.7914 82.4016 67.2675 81.4693C67.9236 80.1908 69.0525 79.5532 70.1436 79.8583L70.8758 80.0719V78.0519H69.9299V78.0488ZM57.8922 77.9419C57.4908 77.9419 57.0651 77.9954 56.6412 78.0885C53.8993 78.8055 52.3538 81.4297 52.4484 84.1302C52.4484 86.3914 52.8877 87.5218 53.9788 88.7073C56.214 90.5411 58.2354 90.6876 60.9633 89.7036C61.4287 89.5053 61.9352 89.2764 61.9352 89.2764V87.4426L60.9633 87.9461C58.7556 88.9072 57.0926 88.9072 55.7606 87.7751C54.911 86.91 54.537 85.8726 54.3647 84.6887H62.6263V83.1171C62.6263 79.9131 60.6979 77.8901 57.8905 77.9419H57.8922ZM54.5508 83.053C54.5508 83.053 54.856 81.0544 55.9881 80.2702C56.5329 79.8856 57.1583 79.6996 57.77 79.6996C58.3835 79.6996 58.9952 79.8979 59.5002 80.284C60.5378 81.0819 60.7117 83.0379 60.7117 83.0379H54.5509V83.053H54.5508ZM5.15325 80.9507C2.9319 79.605 1.94629 78.6346 2.06681 77.4903C2.41155 74.3245 6.32355 74.7624 8.48994 75.9601L8.50535 73.8303C8.50535 73.8303 7.30761 73.3116 5.59114 73.2841C2.9578 73.2444 1.25511 74.1079 0.45728 75.8655C-0.714566 78.4592 0.323041 80.4151 4.07329 82.5969C6.17868 83.822 7.10928 84.8855 7.10928 86.0449C7.10928 88.4403 4.22117 89.2764 1.24154 87.7736C0.628315 87.4684 0.109512 87.2136 0.0820728 87.2136C-0.0247976 87.8926 0.030291 89.5174 0.030291 89.5174C0.030291 89.5174 0.945761 89.902 2.31875 90.1672C5.72397 90.8461 8.82279 89.2488 9.11569 86.6551C9.37051 84.2202 8.49001 82.9431 5.15339 80.949L5.15325 80.9507ZM88.0643 77.9145C87.6645 77.9145 87.2404 77.9694 86.7979 78.0625C84.0594 78.7796 82.5167 81.4038 82.622 84.1044C82.622 86.3624 83.06 87.4822 84.1508 88.6661C86.386 90.5016 88.4076 90.6495 91.1493 89.664C91.6131 89.4658 92.1181 89.2401 92.1181 89.2401V87.4031L91.1478 87.9095C88.9356 88.8677 87.2724 88.8677 85.9452 87.7356C85.0907 86.8721 84.72 85.8468 84.5476 84.6491H92.7955V83.0776C92.7955 79.889 90.8669 77.8643 88.0597 77.9178L88.0643 77.9145ZM84.723 83.0256C84.723 83.0256 85.0312 81.03 86.1617 80.2304C86.7049 79.8445 87.3304 79.6583 87.9422 79.6583C88.5524 79.6583 89.1673 79.8566 89.6725 80.2442C90.71 81.0421 90.884 83.0118 90.884 83.0118H84.7247L84.723 83.0256ZM47.1664 80.9766C44.9451 79.634 43.9624 78.6605 44.0815 77.5162C44.4262 74.3488 48.3383 74.7883 50.5047 75.986L50.52 73.8562C50.52 73.8562 49.3223 73.3374 47.6058 73.3129C44.9724 73.2733 43.2698 74.1369 42.4705 75.8944C41.3002 78.488 42.3514 80.444 46.0893 82.6258C48.1919 83.8495 49.1224 84.8992 49.1224 86.0586C49.1224 88.454 46.2358 89.3039 43.2561 87.7872C42.6458 87.4821 42.1272 87.2303 42.0967 87.2303C41.9898 87.9091 42.0449 89.5342 42.0449 89.5342C42.0449 89.5342 42.9495 89.9049 44.3181 90.184C47.7264 90.8645 50.8267 89.2686 51.1182 86.6749C51.3714 84.252 50.4926 82.9751 47.1665 80.9794V80.9766H47.1664ZM100.104 78.0213C98.9196 78.0213 98.0028 78.5018 97.4031 79.4463L96.9239 80.1908V78.2502H94.875V89.9034H96.9225V86.1778C96.9225 82.7724 96.9635 82.3726 97.4413 81.442C98.0973 80.165 99.2262 79.5258 100.317 79.8324L101.049 80.0459V78.0214L100.104 78.0213ZM30.872 80.9094V73.4853H28.8063V89.9294H37.4937V87.9873H30.8721V80.9094H30.872ZM78.6446 83.2239L76.942 87.6545L75.3048 83.1994L73.6418 78.2624H71.5272C72.8974 82.1469 74.3878 86.0983 75.8907 89.9294C76.5422 89.9446 77.1952 89.9294 77.8465 89.9294L80.1459 84.1561L82.4878 78.2639H80.4664C80.4664 78.2639 79.5737 80.6043 78.6432 83.2254L78.6446 83.2239ZM35.6321 69.0043C35.9648 69.0043 36.2424 68.8977 36.4713 68.6688C36.697 68.4429 36.816 68.1774 36.816 67.8449C36.816 67.5122 36.697 67.2345 36.4713 67.0209C36.2424 66.8074 35.9784 66.7005 35.6473 66.7005C35.3118 66.7005 35.0341 66.8074 34.8082 67.0331C34.5794 67.259 34.4756 67.5367 34.4756 67.8571C34.4756 68.1928 34.5825 68.4703 34.8082 68.681C35.0219 68.8945 35.2996 69.0014 35.6321 69.0014V69.0043ZM34.8999 67.1125C35.0981 66.9143 35.3393 66.8226 35.6474 66.8226C35.9374 66.8226 36.1785 66.9143 36.3799 67.1125C36.5782 67.3109 36.685 67.5519 36.685 67.8449C36.685 68.1378 36.5782 68.3911 36.3799 68.5894C36.1785 68.7876 35.9374 68.8823 35.6474 68.8823C35.353 68.8823 35.1134 68.7907 34.9152 68.5894C34.7168 68.3911 34.61 68.1378 34.61 67.8449C34.61 67.5519 34.7016 67.3109 34.8999 67.1125ZM35.3926 67.9517H35.5268C35.6215 67.9517 35.7145 68.0432 35.7938 68.2172L35.9542 68.5771H36.2058L36.0076 68.1773C35.9267 68.0172 35.8474 67.9242 35.7543 67.8981C35.8718 67.8706 35.9648 67.831 36.032 67.7516C36.099 67.683 36.1234 67.5899 36.1234 67.4846C36.1234 67.3626 36.0853 67.2711 36.0045 67.2039C35.9129 67.1277 35.7665 67.0865 35.5772 67.0865H35.1532V68.5771H35.3668V67.9516L35.3926 67.9517ZM35.3926 67.259H35.5788C35.7131 67.259 35.8077 67.2865 35.8595 67.3261C35.9099 67.3657 35.9236 67.4177 35.9236 67.5122C35.9236 67.6846 35.8167 67.7656 35.6185 67.7656H35.3897V67.259H35.3926ZM1.26876 67.8189C1.26876 67.3002 1.25357 66.9143 1.24133 66.6869H1.25357C1.3069 66.9552 1.37254 67.1552 1.42594 67.2879L3.40927 71.7186H3.74191L5.72524 67.2483C5.77878 67.1264 5.83218 66.9432 5.89775 66.6884H5.91295C5.87334 67.1309 5.85962 67.5153 5.85962 67.8219V71.7324H6.53841V65.9194H5.68711L3.86398 69.9625C3.79679 70.1226 3.70371 70.3623 3.58474 70.6796H3.55716C3.51755 70.5225 3.42447 70.2829 3.29177 69.9899L1.50966 65.9056H0.605027V71.7184H1.258V67.8218L1.26876 67.8189ZM8.02609 67.8297H8.61208V71.4501H8.02609V67.8297ZM8.31905 66.5023C8.44118 66.5023 8.54489 66.461 8.62418 66.3803C8.70509 66.3008 8.75856 66.1971 8.75856 66.0751C8.75856 65.9561 8.71881 65.8492 8.6258 65.77C8.54341 65.6891 8.43809 65.6478 8.31757 65.6478C8.19867 65.6478 8.09187 65.6891 8.01237 65.77C7.93174 65.8492 7.8782 65.9561 7.8782 66.0751C7.8782 66.2079 7.91943 66.3008 8.01237 66.3803C8.10411 66.461 8.1986 66.5023 8.31757 66.5023H8.31905ZM12.7895 71.5295V70.8917C12.469 71.1313 12.1242 71.2504 11.7672 71.2504C11.3401 71.2504 10.9936 71.104 10.7403 70.8233C10.4887 70.5456 10.3544 70.1594 10.3544 69.6789C10.3544 69.1754 10.4887 68.7755 10.7663 68.4704C11.0333 68.1775 11.3797 68.031 11.8039 68.031C12.1502 68.031 12.4826 68.138 12.7895 68.3516V67.6727C12.5104 67.5262 12.1915 67.459 11.8313 67.459C11.1661 67.459 10.6475 67.6727 10.26 68.0848C9.87539 68.4966 9.67705 69.0566 9.67705 69.7325C9.67705 70.3336 9.84943 70.8386 10.2081 71.2247C10.5818 71.6213 11.0595 71.8227 11.6453 71.8227C12.0983 71.8102 12.469 71.7156 12.7895 71.5295ZM14.4661 69.5995C14.4661 69.1219 14.5729 68.736 14.7712 68.4703C14.9575 68.2309 15.1832 68.1104 15.4502 68.1104C15.676 68.1104 15.8361 68.1515 15.9536 68.2446V67.5519C15.8621 67.5123 15.7293 67.4986 15.557 67.4986C15.3174 67.4986 15.1039 67.5792 14.9162 67.7274C14.7179 67.8844 14.5593 68.1241 14.4662 68.4292H14.451V67.5793H13.7873V71.7293H14.4525V69.5995H14.4661ZM18.2849 71.8117C18.9105 71.8117 19.414 71.6102 19.7877 71.2106C20.1599 70.8137 20.3461 70.2799 20.3461 69.6145C20.3461 68.9358 20.1753 68.417 19.8274 68.0308C19.4827 67.6451 19.0035 67.4587 18.3779 67.4587C17.7523 67.4587 17.2488 67.6449 16.8751 68.0049C16.4754 68.4018 16.2648 68.9617 16.2648 69.6803C16.2648 70.3058 16.4357 70.8246 16.7959 71.2106C17.168 71.6102 17.6609 71.8101 18.2849 71.8101V71.8117ZM17.339 68.4307C17.5923 68.1637 17.925 68.0309 18.3368 68.0309C18.7641 68.0309 19.0845 68.1637 19.3225 68.4307C19.562 68.71 19.6811 69.1082 19.6811 69.6406C19.6811 70.147 19.5742 70.5453 19.3484 70.8123C19.1227 71.0916 18.79 71.2395 18.3505 71.2395C17.9234 71.2395 17.5923 71.0914 17.339 70.8123C17.0873 70.5316 16.9668 70.147 16.9668 69.6406C16.9409 69.1372 17.0736 68.7253 17.339 68.4307ZM23.2588 71.4501C23.512 71.2244 23.6464 70.9467 23.6464 70.5987C23.6464 70.2935 23.5395 70.0403 23.3412 69.8404C23.1794 69.6804 22.9293 69.5353 22.5677 69.3888C22.2472 69.2547 22.0489 69.1355 21.942 69.0425C21.8353 68.9357 21.7697 68.8031 21.7697 68.6153C21.7697 68.443 21.8369 68.3102 21.9681 68.2034C22.1024 68.0967 22.2733 68.0449 22.5021 68.0449C22.8607 68.0449 23.1673 68.1394 23.4479 68.3393V67.674C23.1795 67.5399 22.888 67.4759 22.5554 67.4759C22.1283 67.4759 21.7682 67.5934 21.5026 67.8205C21.2234 68.0465 21.0907 68.3394 21.0907 68.6841C21.0907 68.9892 21.1822 69.2426 21.356 69.4286C21.5025 69.5873 21.7529 69.7491 22.1006 69.8939C22.4333 70.0405 22.6591 70.1731 22.7796 70.2798C22.8985 70.3868 22.9519 70.5194 22.9519 70.6767C22.9519 71.0641 22.6865 71.2641 22.1677 71.2641C21.768 71.2641 21.4096 71.1328 21.089 70.8674V71.5843C21.3789 71.7584 21.7268 71.8376 22.1112 71.8376C22.6041 71.8117 22.99 71.6912 23.2555 71.4517L23.2588 71.4501ZM26.4262 67.4588C25.8005 67.4588 25.2971 67.6451 24.9233 68.0051C24.5266 68.4019 24.313 68.9618 24.313 69.6805C24.313 70.306 24.4855 70.8248 24.844 71.2108C25.2178 71.6104 25.709 71.8103 26.3346 71.8103C26.9754 71.8103 27.4637 71.609 27.8374 71.2091C28.2112 70.8125 28.3973 70.2785 28.3973 69.6132C28.3973 68.9343 28.2234 68.4156 27.8785 68.0295C27.5186 67.6435 27.0394 67.4573 26.4291 67.4573L26.4262 67.4588ZM27.7168 69.6407C27.7168 70.1471 27.61 70.5454 27.3843 70.8124C27.1584 71.0916 26.8258 71.2395 26.3863 71.2395C25.959 71.2395 25.628 71.0915 25.3747 70.8124C25.123 70.5317 25.0025 70.1471 25.0025 69.6407C25.0025 69.1067 25.1353 68.6948 25.4023 68.417C25.6539 68.1515 25.9867 68.0172 26.4001 68.0172C26.812 68.0172 27.1432 68.1514 27.3826 68.417C27.5963 68.7099 27.7153 69.1082 27.7153 69.6407H27.7168ZM29.5142 71.7171H30.1779V68.1242H31.1497V67.5657H30.1778V66.9249C30.1778 66.3422 30.4035 66.0492 30.8705 66.0492C31.0276 66.0492 31.1878 66.0889 31.3069 66.156V65.5565C31.1878 65.5031 31.0276 65.491 30.8276 65.491C30.4692 65.491 30.1763 65.5978 29.9366 65.8235C29.6574 66.089 29.5095 66.4338 29.5095 66.9008V67.5813H28.8075V68.1397H29.5095V71.7191L29.5142 71.7171ZM32.2405 70.585C32.2405 71.3968 32.5992 71.8102 33.3314 71.8102C33.597 71.8102 33.7968 71.7676 33.957 71.6729V71.1023C33.835 71.1939 33.69 71.2367 33.5298 71.2367C33.3041 71.2367 33.1454 71.1831 33.0523 71.0626C32.9576 70.9438 32.9043 70.7422 32.9043 70.4645V68.1226H33.9569V67.5641H32.9043V66.3407C32.6754 66.4199 32.4512 66.4871 32.239 66.5541V67.5641H31.522V68.1226H32.239V70.5835L32.2405 70.585ZM103.643 78.2348C103.417 78.0213 103.15 77.9145 102.819 77.9145C102.484 77.9145 102.206 78.0213 101.98 78.2501C101.754 78.4744 101.647 78.7535 101.647 79.0741C101.647 79.4067 101.754 79.6844 101.979 79.8979C102.204 80.1115 102.482 80.2184 102.818 80.2184C103.149 80.2184 103.428 80.1115 103.657 79.8857C103.881 79.6568 104 79.3929 104 79.0619C103.988 78.7262 103.867 78.4485 103.642 78.2349L103.643 78.2348ZM103.536 79.8064C103.338 80.0047 103.097 80.0962 102.804 80.0962C102.514 80.0962 102.273 80.0047 102.072 79.8064C101.874 79.605 101.767 79.3532 101.767 79.0587C101.767 78.7688 101.858 78.5279 102.06 78.3265C102.258 78.1283 102.498 78.0365 102.804 78.0365C103.094 78.0365 103.335 78.1283 103.536 78.3265C103.735 78.5279 103.842 78.7688 103.842 79.0587C103.842 79.367 103.75 79.605 103.536 79.8064ZM102.938 79.1274C103.057 79.1 103.152 79.0466 103.218 78.981C103.285 78.9123 103.309 78.8191 103.309 78.7126C103.309 78.5935 103.271 78.4989 103.19 78.4333C103.099 78.357 102.951 78.3158 102.763 78.3158H102.339V79.8048H102.553V79.1793H102.685C102.777 79.1793 102.868 79.2707 102.951 79.4447L103.109 79.8032H103.363L103.164 79.4034C103.096 79.2295 103.016 79.1501 102.936 79.1241L102.938 79.1274ZM102.792 78.9932H102.563V78.4898H102.751C102.883 78.4898 102.976 78.5141 103.03 78.5554C103.083 78.595 103.096 78.6469 103.096 78.7416C103.096 78.9139 102.989 78.9934 102.79 78.9934L102.792 78.9932ZM65.6732 67.3933H65.8594V65.9027H66.352V65.7165H65.1805V65.9027H65.6734V67.3933H65.6732ZM66.8022 66.2735C66.8022 66.1284 66.8022 66.0094 66.7915 65.9424C66.8038 66.0217 66.8312 66.0752 66.8435 66.1148L67.4157 67.3933H67.5072L68.0807 66.1025C68.0961 66.0629 68.1084 66.011 68.1342 65.9424C68.122 66.0752 68.122 66.1817 68.122 66.2628V67.3918H68.3204V65.7165H68.0807L67.5621 66.873C67.5499 66.9143 67.5085 66.995 67.4827 67.0867H67.4674C67.4567 67.0332 67.4294 66.9798 67.3912 66.8884L66.8724 65.7167H66.604V67.3949H66.7915V66.2751L66.8022 66.2735Z" fill="#310047" fill-opacity="0.7"/>
</g>
<defs>
<clipPath id="clip0_102_22">
<rect width="104" height="104" fill="white"/>
</clipPath>
</defs>
</svg>
