<svg width="50" height="51" viewBox="0 0 50 51" fill="none" xmlns="http://www.w3.org/2000/svg">
<path fill-rule="evenodd" clip-rule="evenodd" d="M50 16.6162C50 13.2301 48.7667 10.4606 46.7191 8.29112C47.0478 7.50499 48.1424 4.34942 46.4025 0.0799146C46.4025 0.0799146 43.7247 -0.753427 37.6274 3.26052C35.0793 2.5716 32.3472 2.22717 29.6333 2.21605C26.9193 2.22717 24.1873 2.5716 21.6422 3.26052C15.5418 -0.753427 12.8611 0.0799146 12.8611 0.0799146C11.1211 4.34942 12.2188 7.50499 12.5474 8.29112C10.5029 10.4606 9.26054 13.2301 9.26054 16.6162C9.26054 28.5052 16.7149 31.1664 23.8043 31.9497C23.8043 31.9497 18.7081 34.858 18.7081 39.747C16.8897 40.5415 9.19419 42.9748 6.34454 38.2331C6.34454 38.2331 4.65886 35.2553 1.4534 35.0358C1.4534 35.0358 -1.66465 34.9969 1.23326 36.9219C1.23326 36.9219 3.32603 37.8775 4.77949 41.4609C4.77949 41.4609 6.39579 49.011 18.6056 45.6193C18.7292 45.6776 18.6508 49.2721 18.6508 50.0082H40.6218C40.6218 50.0082 40.658 42.7943 40.658 40.4998C40.658 34.858 36.5689 32.8831 35.42 31.9247C42.5336 31.158 50 28.5358 50 16.6162Z" fill="#8033A3"/>
</svg>
