<svg width="48" height="48" viewBox="0 0 48 48" fill="none" xmlns="http://www.w3.org/2000/svg">
<path d="M34.6875 28.6562C34.0938 28.375 31.25 26.9687 30.7188 26.75C30.1875 26.5312 29.8125 26.4687 29.4062 27.0625C29 27.6562 27.9063 28.9375 27.5625 29.3437C27.2188 29.75 26.9063 29.7812 26.3125 29.3437C24.6071 28.6594 23.0321 27.6869 21.6563 26.4687C20.4108 25.2961 19.3564 23.9359 18.5313 22.4375C18.1875 21.875 18.5313 21.5625 18.7813 21.25C19.0313 20.9375 19.3438 20.5937 19.6563 20.25C19.8848 19.9527 20.0739 19.6271 20.2188 19.2812C20.2963 19.1204 20.3365 18.9442 20.3365 18.7656C20.3365 18.5871 20.2963 18.4108 20.2188 18.25C20.2188 17.9687 18.9063 15.125 18.4063 13.9687C17.9063 12.8125 17.4688 12.9687 17.125 12.9687H15.875C15.2795 12.992 14.7176 13.2504 14.3125 13.6875C13.6586 14.3115 13.1407 15.0638 12.7911 15.8973C12.4416 16.7308 12.268 17.6275 12.2813 18.5312C12.4411 20.7499 13.2569 22.871 14.625 24.625C17.1355 28.3545 20.5702 31.3692 24.5938 33.375C25.9688 33.9687 27.0313 34.3125 27.875 34.5937C29.0598 34.9519 30.3122 35.0268 31.5312 34.8125C32.3409 34.6482 33.1082 34.3194 33.7855 33.8463C34.4629 33.3733 35.0358 32.7661 35.4688 32.0625C35.8291 31.1936 35.9479 30.2434 35.8125 29.3125C35.6562 29.0937 35.2813 28.9375 34.6875 28.6562Z" fill="#8033A3"/>
<path d="M40.5313 7.37494C38.3701 5.19333 35.7939 3.46658 32.9547 2.29655C30.1155 1.12651 27.0707 0.53689 24 0.56244C19.9322 0.58373 15.9411 1.67192 12.4254 3.71832C8.90978 5.76473 5.99255 8.69772 3.96512 12.2244C1.93769 15.751 0.87103 19.7479 0.87167 23.8158C0.8723 27.8837 1.94022 31.8802 3.96875 35.4062L0.84375 47.4374L13.1563 44.3124C16.5601 46.1646 20.3748 47.1318 24.25 47.1249H24C28.6185 47.155 33.1413 45.8089 36.9917 43.2582C40.8421 40.7075 43.8455 37.0679 45.619 32.8034C47.3926 28.5389 47.8558 23.8428 46.9496 19.3139C46.0435 14.7851 43.8091 10.6288 40.5313 7.37494ZM24 43.1249C20.533 43.1277 17.1304 42.1879 14.1562 40.4062L13.4688 39.9999L6.15625 41.9062L8.09375 34.7812L7.65625 34.0624C5.16049 30.0432 4.22691 25.2476 5.03265 20.5856C5.83839 15.9236 8.32739 11.7196 12.0274 8.77114C15.7274 5.8227 20.381 4.335 25.1052 4.59031C29.8294 4.84562 34.2956 6.82617 37.6563 10.1562C39.4579 11.9434 40.8859 14.0712 41.857 16.4158C42.8281 18.7604 43.3229 21.2747 43.3125 23.8124C43.3042 28.9319 41.2669 33.8393 37.6469 37.4593C34.0269 41.0793 29.1195 43.1167 24 43.1249Z" fill="#8033A3"/>
</svg>
