<svg width="388" height="277" viewBox="0 0 388 277" fill="none" xmlns="http://www.w3.org/2000/svg">
<rect width="388" height="277" rx="41" fill="#3C9A83"/>
<path d="M43.5057 80H41.2159C41.0805 79.3414 40.8435 78.7628 40.505 78.2642C40.1726 77.7656 39.7663 77.3471 39.2862 77.0085C38.8123 76.6638 38.286 76.4053 37.7074 76.233C37.1288 76.0606 36.5256 75.9744 35.8977 75.9744C34.7528 75.9744 33.7157 76.2637 32.7862 76.8423C31.8629 77.4209 31.1274 78.2734 30.5795 79.3999C30.0379 80.5263 29.767 81.9081 29.767 83.5455C29.767 85.1828 30.0379 86.5646 30.5795 87.6911C31.1274 88.8175 31.8629 89.67 32.7862 90.2486C33.7157 90.8272 34.7528 91.1165 35.8977 91.1165C36.5256 91.1165 37.1288 91.0303 37.7074 90.858C38.286 90.6856 38.8123 90.4302 39.2862 90.0916C39.7663 89.7469 40.1726 89.3253 40.505 88.8267C40.8435 88.322 41.0805 87.7434 41.2159 87.0909H43.5057C43.3333 88.0573 43.0194 88.9221 42.5639 89.6854C42.1084 90.4486 41.5421 91.098 40.8651 91.6335C40.188 92.1629 39.4278 92.5661 38.5845 92.843C37.7474 93.12 36.8518 93.2585 35.8977 93.2585C34.285 93.2585 32.8509 92.8646 31.5952 92.0767C30.3395 91.2888 29.3516 90.1686 28.6314 88.7159C27.9112 87.2633 27.5511 85.5398 27.5511 83.5455C27.5511 81.5511 27.9112 79.8277 28.6314 78.375C29.3516 76.9223 30.3395 75.8021 31.5952 75.0142C32.8509 74.2263 34.285 73.8324 35.8977 73.8324C36.8518 73.8324 37.7474 73.9709 38.5845 74.2479C39.4278 74.5249 40.188 74.9311 40.8651 75.4666C41.5421 75.996 42.1084 76.6423 42.5639 77.4055C43.0194 78.1626 43.3333 79.0275 43.5057 80ZM54.5183 93V74.0909H60.9075C62.3848 74.0909 63.5974 74.3433 64.5453 74.848C65.4932 75.3466 66.1949 76.0329 66.6504 76.907C67.1059 77.781 67.3336 78.7751 67.3336 79.8892C67.3336 81.0033 67.1059 81.9912 66.6504 82.853C66.1949 83.7147 65.4963 84.3918 64.5545 84.8842C63.6127 85.3705 62.4094 85.6136 60.9444 85.6136H55.774V83.5455H60.8706C61.88 83.5455 62.6925 83.3977 63.3081 83.1023C63.9297 82.8068 64.3791 82.3883 64.6561 81.8466C64.9392 81.2988 65.0808 80.6463 65.0808 79.8892C65.0808 79.1321 64.9392 78.4704 64.6561 77.9041C64.3729 77.3378 63.9205 76.9008 63.2988 76.593C62.6771 76.2791 61.8554 76.1222 60.8336 76.1222H56.8081V93H54.5183ZM63.4189 84.5057L68.0723 93H65.4132L60.8336 84.5057H63.4189ZM90.8707 74.0909H93.1605V86.6108C93.1605 87.9034 92.8558 89.0575 92.2464 90.0732C91.6432 91.0826 90.7907 91.8797 89.6889 92.4645C88.5871 93.0431 87.2945 93.3324 85.8111 93.3324C84.3277 93.3324 83.035 93.0431 81.9332 92.4645C80.8314 91.8797 79.9759 91.0826 79.3665 90.0732C78.7633 89.0575 78.4616 87.9034 78.4616 86.6108V74.0909H80.7514V86.4261C80.7514 87.3494 80.9545 88.1712 81.3608 88.8913C81.767 89.6054 82.3456 90.1686 83.0966 90.581C83.8537 90.9872 84.7585 91.1903 85.8111 91.1903C86.8636 91.1903 87.7685 90.9872 88.5256 90.581C89.2827 90.1686 89.8613 89.6054 90.2614 88.8913C90.6676 88.1712 90.8707 87.3494 90.8707 86.4261V74.0909ZM110.881 93H105.046V74.0909H111.139C112.974 74.0909 114.543 74.4695 115.848 75.2266C117.153 75.9775 118.153 77.0578 118.849 78.4673C119.544 79.8707 119.892 81.5511 119.892 83.5085C119.892 85.4782 119.541 87.174 118.84 88.5959C118.138 90.0116 117.116 91.1011 115.774 91.8643C114.432 92.6214 112.801 93 110.881 93ZM107.335 90.9688H110.733C112.297 90.9688 113.592 90.6671 114.62 90.0639C115.648 89.4607 116.414 88.602 116.919 87.4879C117.424 86.3738 117.676 85.0473 117.676 83.5085C117.676 81.982 117.427 80.6679 116.928 79.5661C116.43 78.4581 115.685 77.6087 114.694 77.0178C113.703 76.4207 112.469 76.1222 110.992 76.1222H107.335V90.9688ZM138.875 82.5298V84.5611H130.602V82.5298H138.875ZM150.317 93V74.0909H161.655V76.1222H152.607V82.5114H160.806V84.5426H152.607V93H150.317ZM185.298 74.0909H187.588V86.6108C187.588 87.9034 187.284 89.0575 186.674 90.0732C186.071 91.0826 185.218 91.8797 184.117 92.4645C183.015 93.0431 181.722 93.3324 180.239 93.3324C178.755 93.3324 177.463 93.0431 176.361 92.4645C175.259 91.8797 174.404 91.0826 173.794 90.0732C173.191 89.0575 172.889 87.9034 172.889 86.6108V74.0909H175.179V86.4261C175.179 87.3494 175.382 88.1712 175.789 88.8913C176.195 89.6054 176.773 90.1686 177.524 90.581C178.281 90.9872 179.186 91.1903 180.239 91.1903C181.291 91.1903 182.196 90.9872 182.953 90.581C183.71 90.1686 184.289 89.6054 184.689 88.8913C185.095 88.1712 185.298 87.3494 185.298 86.4261V74.0909ZM199.473 93V74.0909H201.763V90.9688H210.553V93H199.473ZM221.411 93V74.0909H223.701V90.9688H232.49V93H221.411ZM253.689 78.8182C253.578 77.8826 253.129 77.1562 252.341 76.6392C251.553 76.1222 250.587 75.8636 249.442 75.8636C248.605 75.8636 247.873 75.9991 247.245 76.2699C246.623 76.5407 246.137 76.9131 245.786 77.3871C245.441 77.861 245.269 78.3996 245.269 79.0028C245.269 79.5076 245.389 79.9415 245.629 80.3047C245.875 80.6617 246.189 80.9602 246.571 81.2003C246.952 81.4342 247.352 81.6281 247.771 81.782C248.19 81.9297 248.574 82.0497 248.925 82.142L250.846 82.6591C251.338 82.7884 251.886 82.9669 252.489 83.1946C253.098 83.4223 253.68 83.7332 254.234 84.1271C254.794 84.5149 255.256 85.0135 255.619 85.6229C255.982 86.2322 256.164 86.9801 256.164 87.8665C256.164 88.8883 255.896 89.8116 255.36 90.6364C254.831 91.4612 254.056 92.1167 253.034 92.603C252.018 93.0893 250.784 93.3324 249.331 93.3324C247.977 93.3324 246.805 93.1139 245.814 92.6768C244.829 92.2398 244.053 91.6304 243.487 90.8487C242.927 90.067 242.61 89.1591 242.536 88.125H244.9C244.961 88.839 245.201 89.4299 245.62 89.8977C246.044 90.3594 246.58 90.7041 247.226 90.9318C247.879 91.1534 248.58 91.2642 249.331 91.2642C250.205 91.2642 250.99 91.1226 251.686 90.8395C252.381 90.5502 252.932 90.1501 253.338 89.6392C253.745 89.1222 253.948 88.5189 253.948 87.8295C253.948 87.2017 253.772 86.6908 253.422 86.2969C253.071 85.9029 252.609 85.5829 252.037 85.3366C251.464 85.0904 250.846 84.875 250.181 84.6903L247.854 84.0256C246.377 83.6009 245.207 82.9946 244.346 82.2067C243.484 81.4188 243.053 80.3878 243.053 79.1136C243.053 78.0549 243.339 77.1316 243.912 76.3438C244.49 75.5497 245.266 74.9342 246.238 74.4972C247.217 74.054 248.31 73.8324 249.516 73.8324C250.735 73.8324 251.818 74.0509 252.766 74.4879C253.714 74.9188 254.465 75.5097 255.019 76.2607C255.579 77.0116 255.874 77.8641 255.905 78.8182H253.689ZM266.207 76.1222V74.0909H280.389V76.1222H274.443V93H272.153V76.1222H266.207ZM292.011 93H289.61L296.553 74.0909H298.917L305.86 93H303.46L297.809 77.0824H297.661L292.011 93ZM292.897 85.6136H302.573V87.6449H292.897V85.6136ZM331.334 80H329.044C328.909 79.3414 328.672 78.7628 328.333 78.2642C328.001 77.7656 327.594 77.3471 327.114 77.0085C326.64 76.6638 326.114 76.4053 325.536 76.233C324.957 76.0606 324.354 75.9744 323.726 75.9744C322.581 75.9744 321.544 76.2637 320.614 76.8423C319.691 77.4209 318.955 78.2734 318.408 79.3999C317.866 80.5263 317.595 81.9081 317.595 83.5455C317.595 85.1828 317.866 86.5646 318.408 87.6911C318.955 88.8175 319.691 89.67 320.614 90.2486C321.544 90.8272 322.581 91.1165 323.726 91.1165C324.354 91.1165 324.957 91.0303 325.536 90.858C326.114 90.6856 326.64 90.4302 327.114 90.0916C327.594 89.7469 328.001 89.3253 328.333 88.8267C328.672 88.322 328.909 87.7434 329.044 87.0909H331.334C331.161 88.0573 330.848 88.9221 330.392 89.6854C329.937 90.4486 329.37 91.098 328.693 91.6335C328.016 92.1629 327.256 92.5661 326.413 92.843C325.576 93.12 324.68 93.2585 323.726 93.2585C322.113 93.2585 320.679 92.8646 319.423 92.0767C318.168 91.2888 317.18 90.1686 316.46 88.7159C315.739 87.2633 315.379 85.5398 315.379 83.5455C315.379 81.5511 315.739 79.8277 316.46 78.375C317.18 76.9223 318.168 75.8021 319.423 75.0142C320.679 74.2263 322.113 73.8324 323.726 73.8324C324.68 73.8324 325.576 73.9709 326.413 74.2479C327.256 74.5249 328.016 74.9311 328.693 75.4666C329.37 75.996 329.937 76.6423 330.392 77.4055C330.848 78.1626 331.161 79.0275 331.334 80ZM342.346 93V74.0909H344.636V83.4716H344.858L353.352 74.0909H356.344L348.403 82.6222L356.344 93H353.574L347 84.2102L344.636 86.8693V93H342.346Z" fill="white"/>
<g clip-path="url(#clip0_0_1)">
<path d="M89.5755 188.94H83.7521L80.6133 181.683H67.3537L64.2149 188.944H58.3879L73.9844 156.492L89.5755 188.94ZM73.9844 151L49 159.251L52.8099 189.857L73.9861 200.73L95.1677 189.867L98.9723 159.254L73.9844 151.002V151ZM69.4185 177.202H78.5521L73.9826 167.033L69.4185 177.202Z" fill="#FEFCFF" fill-opacity="0.7"/>
</g>
<g clip-path="url(#clip1_0_1)">
<path d="M170.924 173.25C163.694 173.25 157.847 179.447 157.847 187.109C157.847 194.771 163.694 201 170.924 201C178.153 201 184 194.771 184 187.109C184 179.447 178.153 173.25 170.924 173.25ZM162.674 178.663H164.168C164.168 178.701 164.153 178.787 164.168 178.793C164.877 179.171 165.423 179.847 166.306 179.896C167.76 179.971 168.852 180.81 169.944 181.675C171.74 183.097 172.816 185.027 173.643 187.147C173.852 187.687 174.107 188.239 174.408 188.731C174.587 189.023 174.867 189.31 175.174 189.445C176.587 190.061 177.806 190.943 178.903 192.229C178 192.43 177.194 192.608 176.276 192.813C176.454 193.019 176.541 193.154 176.674 193.268C177.469 193.954 178.281 194.663 179.087 195.339C179.184 195.42 179.337 195.447 179.454 195.501V195.598C178.74 195.209 178.01 194.863 177.316 194.43C176.796 194.111 176.26 193.738 175.852 193.295C175.235 192.635 175.327 192.424 176.189 192.224C176.776 192.089 177.388 192.024 178.02 191.932C177.99 191.84 177.975 191.737 177.929 191.705C177 191.029 176.122 190.25 174.964 189.991C174.321 189.845 173.98 189.407 173.709 188.823C173.036 187.358 172.413 185.871 171.602 184.486C170.546 182.686 168.99 181.399 167.051 180.631C166.964 180.599 166.862 180.528 166.776 180.534C165.622 180.642 164.791 179.885 163.842 179.431C163.704 179.366 163.556 179.268 163.413 179.268C163.235 179.268 162.99 179.312 162.893 179.431C162.801 179.544 162.826 179.793 162.893 179.95C163.005 180.215 163.214 180.436 163.352 180.696C163.735 181.41 164.082 182.113 164.454 182.832C164.832 183.567 165.24 184.313 165.587 185.065C165.679 185.26 165.689 185.579 165.617 185.779C165.235 186.812 165.127 187.833 165.311 188.92C165.413 189.515 165.576 190.067 166.138 190.537C166.49 189.634 166.255 188.628 167.087 188.044C167.699 189.202 168.327 190.364 168.949 191.543C168.908 191.581 168.837 191.608 168.796 191.64C168.23 190.899 167.689 190.169 167.087 189.375C167.031 189.715 167.005 190.034 166.903 190.315C166.801 190.586 166.658 190.948 166.444 191.029C166.235 191.105 165.837 190.953 165.648 190.77C164.995 190.121 164.781 189.229 164.791 188.342C164.801 187.552 164.934 186.752 165.097 185.979C165.179 185.584 165.158 185.341 164.944 184.973C164.52 184.238 164.225 183.421 163.872 182.642C163.684 182.221 163.536 181.767 163.26 181.41C162.628 180.582 161.995 179.777 162.674 178.663ZM165.944 181.637C166.117 181.723 166.342 181.756 166.434 181.896C166.541 182.064 166.52 182.324 166.556 182.545C166.495 182.551 166.439 182.572 166.372 182.578C166.199 182.313 166.025 182.032 165.852 181.767C165.877 181.723 165.918 181.685 165.944 181.637Z" fill="white" fill-opacity="0.7"/>
<path d="M156.867 151.005C143.806 151.167 133.556 155.022 134.015 159.619C134.474 164.22 145.454 167.843 158.52 167.681C171.587 167.518 181.801 163.669 181.342 159.067C180.883 154.466 169.934 150.848 156.867 151.005ZM134.015 160.365V169.465C133.995 169.66 133.995 169.882 134.015 170.082C134.474 174.683 145.454 178.273 158.52 178.111C158.551 178.111 158.582 178.111 158.612 178.111C160.571 175.332 163.403 173.169 166.862 172.12C171.051 170.855 175.352 171.471 178.898 173.483C180.347 172.45 181.225 171.293 181.342 170.082H181.372V160.949C180.939 165.285 171.02 168.822 158.52 168.979C145.459 169.141 134.505 165.55 134.046 160.949C134.026 160.754 134.026 160.559 134.046 160.365H134.015ZM134.015 171.017V180.15C133.995 180.344 133.995 180.534 134.015 180.734C134.439 184.995 143.903 188.38 155.679 188.731C155.444 185.519 156.179 182.372 157.663 179.663C144.985 179.658 134.49 176.1 134.046 171.601C134.026 171.406 134.026 171.212 134.046 171.017H134.015ZM181.372 171.633C181.286 172.52 180.786 173.364 179.969 174.159C180.449 174.483 180.929 174.813 181.372 175.197V171.633ZM134.015 181.702V190.802C133.995 190.997 133.995 191.186 134.015 191.386C134.474 195.988 145.454 199.61 158.52 199.448C159.281 199.437 160.041 199.416 160.781 199.383C158.719 197.475 157.102 194.993 156.26 192.067C156.092 191.483 155.964 190.905 155.862 190.321C144.005 190.002 134.474 186.574 134.046 182.291C134.026 182.096 134.026 181.902 134.046 181.707H134.015V181.702Z" fill="white" fill-opacity="0.7"/>
</g>
<path d="M239 200.962C238.312 200.962 237.67 200.777 237.07 200.457L230.972 196.837C230.06 196.33 230.517 196.145 230.792 196.052C232.032 195.64 232.262 195.55 233.545 194.82C233.685 194.727 233.867 194.77 234.007 194.862L238.682 197.662C238.867 197.752 239.097 197.752 239.235 197.662L257.532 187.07C257.717 186.98 257.807 186.795 257.807 186.565V165.42C257.807 165.192 257.717 165.007 257.532 164.917L239.235 154.37C239.052 154.278 238.822 154.278 238.682 154.37L220.38 164.915C220.198 165.005 220.105 165.238 220.105 165.418V186.56C220.105 186.743 220.198 186.975 220.38 187.065L225.38 189.957C228.085 191.327 229.785 189.72 229.785 188.12V167.255C229.785 166.98 230.013 166.703 230.335 166.703H232.675C232.945 166.703 233.225 166.932 233.225 167.255V188.123C233.225 191.745 231.255 193.857 227.815 193.857C226.76 193.857 225.935 193.857 223.595 192.707L218.783 189.96C218.196 189.619 217.71 189.13 217.371 188.542C217.033 187.955 216.855 187.288 216.855 186.61V165.465C216.855 164.09 217.588 162.805 218.783 162.117L237.072 151.525C237.666 151.207 238.329 151.041 239.002 151.041C239.676 151.041 240.339 151.207 240.932 151.525L259.225 162.117C260.422 162.802 261.152 164.09 261.152 165.465V186.61C261.152 187.982 260.42 189.267 259.225 189.96L240.932 200.55C240.33 200.825 239.642 200.962 239 200.962ZM244.64 186.422C236.615 186.422 234.965 182.752 234.965 179.637C234.965 179.362 235.195 179.085 235.515 179.085H237.9C238.175 179.085 238.402 179.267 238.402 179.545C238.77 181.972 239.822 183.167 244.687 183.167C248.537 183.167 250.192 182.292 250.192 180.23C250.192 179.037 249.73 178.167 243.725 177.572C238.727 177.072 235.61 175.965 235.61 171.977C235.61 168.265 238.727 166.062 243.957 166.062C249.825 166.062 252.715 168.085 253.08 172.483C253.076 172.631 253.027 172.775 252.94 172.895C252.847 172.985 252.712 173.078 252.575 173.078H250.192C250.075 173.075 249.961 173.033 249.87 172.959C249.778 172.885 249.714 172.782 249.687 172.667C249.135 170.137 247.715 169.317 243.957 169.317C239.735 169.317 239.23 170.785 239.23 171.885C239.23 173.212 239.822 173.625 245.515 174.36C251.155 175.092 253.815 176.147 253.815 180.095C253.765 184.132 250.467 186.422 244.64 186.422Z" fill="white" fill-opacity="0.7"/>
<g clip-path="url(#clip2_0_1)">
<path d="M344 189.725C343.272 190 342.469 190 341.742 189.723C341.014 189.447 340.413 188.914 340.052 188.225L332.865 178.285L331.823 176.896L323.483 188.237C323.144 188.898 322.575 189.411 321.884 189.683C321.193 189.954 320.427 189.965 319.729 189.712L330.475 175.296L320.479 162.273C321.198 162.014 321.984 162.01 322.705 162.263C323.426 162.516 324.038 163.009 324.438 163.66L331.888 173.723L339.379 163.702C339.721 163.054 340.29 162.554 340.977 162.297C341.664 162.041 342.421 162.045 343.104 162.31L339.225 167.458L333.971 174.298C333.825 174.428 333.708 174.588 333.628 174.766C333.548 174.944 333.507 175.138 333.507 175.333C333.507 175.529 333.548 175.722 333.628 175.901C333.708 176.079 333.825 176.239 333.971 176.369L343.979 189.727L344 189.725ZM294.004 175.117L294.879 170.794C297.283 162.246 307.083 158.69 313.825 163.981C317.773 167.083 318.758 171.475 318.565 176.425H296.325C295.965 185.265 302.344 190.602 310.5 187.875C311.822 187.399 313.006 186.603 313.944 185.557C314.883 184.511 315.548 183.249 315.879 181.883C316.31 180.496 317.021 180.258 318.325 180.658C318.108 182.351 317.509 183.972 316.575 185.4C315.641 186.828 314.395 188.025 312.931 188.902C310.513 190.225 307.739 190.749 305.005 190.4C302.272 190.051 299.718 188.846 297.71 186.958C295.725 184.724 294.525 181.901 294.294 178.921C294.294 178.431 294.127 177.973 294.015 177.533C294.004 176.729 294 175.924 294 175.119L294.004 175.117ZM296.352 174.521H316.465C316.34 168.113 312.296 163.567 306.902 163.525C300.898 163.442 296.602 167.888 296.338 174.492L296.352 174.521Z" fill="white" fill-opacity="0.75"/>
</g>
<defs>
<clipPath id="clip0_0_1">
<rect width="50" height="50" fill="white" transform="translate(49 151)"/>
</clipPath>
<clipPath id="clip1_0_1">
<rect width="50" height="50" fill="white" transform="translate(134 151)"/>
</clipPath>
<clipPath id="clip2_0_1">
<rect width="50" height="50" fill="white" transform="translate(294 151)"/>
</clipPath>
</defs>
</svg>
