<svg width="388" height="277" viewBox="0 0 388 277" fill="none" xmlns="http://www.w3.org/2000/svg">
<rect width="388" height="277" rx="37" fill="#DBE65E"/>
<path d="M41.33 67.04L40.09 67L38.93 62.2C37.3833 61.9333 36.2233 61.8 35.45 61.8C33.93 61.8 32.2233 62.1067 30.33 62.72C29.77 63.76 29.33 65.0933 29.01 66.72C28.69 68.3467 28.53 69.88 28.53 71.32C28.53 78.68 30.65 82.36 34.89 82.36C36.7033 82.36 38.1433 82.0933 39.21 81.56L40.05 76.68C41.73 76.68 43.01 76.7733 43.89 76.96C44.3167 79.8667 44.53 82.2267 44.53 84.04C43.89 84.52 42.5967 85.0533 40.65 85.64C38.73 86.2267 36.8367 86.52 34.97 86.52C27.0233 86.52 23.05 81.6133 23.05 71.8C23.05 67.1333 24.01 63.5867 25.93 61.16C27.8767 58.7333 30.97 57.52 35.21 57.52C37.3167 57.52 39.1833 57.8267 40.81 58.44C42.25 58.9733 43.4767 59.56 44.49 60.2C44.49 62.0133 44.29 64.2 43.89 66.76C43.1433 66.9467 42.29 67.04 41.33 67.04ZM57.1228 58C61.7895 58 64.8828 58.6667 66.4028 60C67.7895 61.2 68.4828 63.0533 68.4828 65.56C68.4828 69.4533 66.4561 72.1067 62.4028 73.52L68.1628 82.2L71.6028 82.56C71.6028 83.7067 71.2961 84.8533 70.6828 86H64.8828L57.0428 74.04H55.7628L55.6428 82.2L58.5628 82.52C58.5628 83.6133 58.2561 84.7733 57.6428 86H47.7628L47.4028 83.8C49.0028 83.16 50.1228 82.7733 50.7628 82.64C50.7095 79.36 50.6428 75.4 50.5628 70.76C50.4828 66.12 50.4295 63.0133 50.4028 61.44L47.0828 60.44C47.1095 59.8267 47.2295 59.0133 47.4428 58H57.1228ZM60.2828 62.28C59.4561 62.0933 58.3495 62 56.9628 62H55.8428C55.7895 65.68 55.7628 68.44 55.7628 70.28L57.7228 70.24C59.2961 70.2133 60.5361 69.8933 61.4428 69.28C62.3761 68.64 62.8428 67.4133 62.8428 65.6C62.8428 63.7867 61.9895 62.68 60.2828 62.28ZM95.0928 71.48L94.9328 61.48L91.6128 60.44L91.9328 58H102.333C102.306 58 102.306 58.0267 102.333 58.08C102.386 58.1333 102.439 58.2533 102.493 58.44C102.573 58.6 102.653 58.8 102.733 59.04C102.893 59.4667 102.999 60.1733 103.053 61.16C101.693 61.3733 100.799 61.5067 100.373 61.56L100.293 71.72C100.239 76.8133 99.3061 80.5467 97.4928 82.92C95.7061 85.2933 92.6395 86.48 88.2928 86.48C83.9461 86.48 80.9195 85.3733 79.2128 83.16C77.5061 80.9467 76.6261 77.3733 76.5728 72.44C76.5195 67.48 76.4661 63.8267 76.4128 61.48L73.0928 60.44L73.4128 58H83.8128C83.7861 58 83.7861 58.0267 83.8128 58.08C83.8661 58.1333 83.9195 58.2533 83.9728 58.44C84.0528 58.6 84.1328 58.8 84.2128 59.04C84.3728 59.4667 84.4795 60.1733 84.5328 61.16C83.1728 61.3733 82.2795 61.5067 81.8528 61.56L81.7328 71.72C81.7328 74.68 81.8928 76.7867 82.2128 78.04C82.5328 79.2667 82.9328 80.1333 83.4128 80.64C84.4528 81.7067 86.1061 82.24 88.3728 82.24C90.5595 82.24 92.2128 81.6267 93.3328 80.4C94.2395 79.4133 94.7861 77.68 94.9728 75.2C95.0528 74.2133 95.0928 72.9733 95.0928 71.48ZM127.689 71.4C127.689 77.2667 126.289 81.3467 123.489 83.64C122.342 84.5467 121.102 85.1733 119.769 85.52C118.436 85.84 116.689 86 114.529 86H104.169L103.809 83.8C105.836 83.0533 106.956 82.6667 107.169 82.64C107.169 82.56 107.049 75.5067 106.809 61.48C105.636 61.1867 104.529 60.84 103.489 60.44C103.649 59.0533 103.756 58.24 103.809 58H114.409C117.022 58 119.102 58.2667 120.649 58.8C122.222 59.3333 123.609 60.28 124.809 61.64C126.729 63.88 127.689 67.1333 127.689 71.4ZM114.889 82.12C117.929 82.12 119.942 81.3867 120.929 79.92C121.942 78.4533 122.449 75.92 122.449 72.32C122.449 68.72 121.889 66.1067 120.769 64.48C119.649 62.8267 117.782 62 115.169 62H112.249C112.142 70.9867 112.076 77.6933 112.049 82.12H114.889ZM149.319 62C149.319 65.7333 149.293 68.6667 149.239 70.8H153.319L153.719 68.04C155.079 68.04 156.399 68.3733 157.679 69.04V76.96L155.039 77.16C154.399 76.2 154.026 75.36 153.919 74.64H149.199L149.119 82.16L153.079 82.6C153.079 83.64 152.773 84.7733 152.159 86H141.239L140.879 83.8C142.613 83.1333 143.733 82.7467 144.239 82.64C144.213 81.0667 144.186 78.8533 144.159 76C144.053 69.6 143.959 64.76 143.879 61.48L140.559 60.44L140.879 58H160.519C160.599 58.72 160.639 59.64 160.639 60.76C160.639 61.8533 160.439 63.36 160.039 65.28C159.453 65.4667 158.559 65.56 157.359 65.56L156.479 65.52H156.279L155.359 62H149.319ZM184.546 71.48L184.386 61.48L181.066 60.44L181.386 58H191.786C191.759 58 191.759 58.0267 191.786 58.08C191.839 58.1333 191.893 58.2533 191.946 58.44C192.026 58.6 192.106 58.8 192.186 59.04C192.346 59.4667 192.453 60.1733 192.506 61.16C191.146 61.3733 190.253 61.5067 189.826 61.56L189.746 71.72C189.693 76.8133 188.759 80.5467 186.946 82.92C185.159 85.2933 182.093 86.48 177.746 86.48C173.399 86.48 170.373 85.3733 168.666 83.16C166.959 80.9467 166.079 77.3733 166.026 72.44C165.973 67.48 165.919 63.8267 165.866 61.48L162.546 60.44L162.866 58H173.266C173.239 58 173.239 58.0267 173.266 58.08C173.319 58.1333 173.373 58.2533 173.426 58.44C173.506 58.6 173.586 58.8 173.666 59.04C173.826 59.4667 173.933 60.1733 173.986 61.16C172.626 61.3733 171.733 61.5067 171.306 61.56L171.186 71.72C171.186 74.68 171.346 76.7867 171.666 78.04C171.986 79.2667 172.386 80.1333 172.866 80.64C173.906 81.7067 175.559 82.24 177.826 82.24C180.013 82.24 181.666 81.6267 182.786 80.4C183.693 79.4133 184.239 77.68 184.426 75.2C184.506 74.2133 184.546 72.9733 184.546 71.48ZM210.422 78.72C211.062 78.6133 211.542 78.56 211.862 78.56C212.209 78.56 212.942 78.6533 214.062 78.84C214.169 79.0533 214.316 79.7333 214.502 80.88C214.716 82.0267 214.822 82.96 214.822 83.68C214.822 84.3733 214.742 85.1467 214.582 86H195.182L194.822 83.8C196.129 83.2667 197.249 82.88 198.182 82.64C198.182 82.56 198.062 75.5067 197.822 61.48L194.502 60.44L194.822 58H205.222C205.196 58 205.196 58.0267 205.222 58.08C205.276 58.1333 205.329 58.2533 205.382 58.44C205.462 58.6 205.542 58.8 205.622 59.04C205.782 59.4667 205.889 60.1733 205.942 61.16C204.582 61.3733 203.689 61.5067 203.262 61.56C203.156 70.76 203.089 77.6267 203.062 82.16H209.542L210.422 78.72ZM234.094 78.72C234.734 78.6133 235.214 78.56 235.534 78.56C235.881 78.56 236.614 78.6533 237.734 78.84C237.841 79.0533 237.987 79.7333 238.174 80.88C238.387 82.0267 238.494 82.96 238.494 83.68C238.494 84.3733 238.414 85.1467 238.254 86H218.854L218.494 83.8C219.801 83.2667 220.921 82.88 221.854 82.64C221.854 82.56 221.734 75.5067 221.494 61.48L218.174 60.44L218.494 58H228.894C228.867 58 228.867 58.0267 228.894 58.08C228.947 58.1333 229.001 58.2533 229.054 58.44C229.134 58.6 229.214 58.8 229.294 59.04C229.454 59.4667 229.561 60.1733 229.614 61.16C228.254 61.3733 227.361 61.5067 226.934 61.56C226.827 70.76 226.761 77.6267 226.734 82.16H233.214L234.094 78.72ZM250.846 82.16C253.939 82.16 255.486 80.84 255.486 78.2C255.486 77.08 254.899 76.1333 253.726 75.36C252.873 74.7733 251.699 74.1467 250.206 73.48C248.739 72.7867 247.633 72.24 246.886 71.84C246.166 71.44 245.326 70.88 244.366 70.16C242.526 68.7467 241.606 66.9867 241.606 64.88C241.606 62.7733 242.419 61.0267 244.046 59.64C245.699 58.2267 247.926 57.52 250.726 57.52C253.526 57.52 256.513 58.4133 259.686 60.2C259.686 62.12 259.486 64.2 259.086 66.44C258.233 66.7067 256.966 66.84 255.286 66.84L254.126 62.08C253.139 61.7867 252.059 61.64 250.886 61.64C249.713 61.64 248.806 61.8933 248.166 62.4C247.526 62.9067 247.206 63.6667 247.206 64.68C247.206 65.6667 247.699 66.56 248.686 67.36C249.699 68.1333 250.913 68.8533 252.326 69.52C253.739 70.16 254.713 70.6133 255.246 70.88C255.779 71.1467 256.459 71.5467 257.286 72.08C258.113 72.6133 258.739 73.12 259.166 73.6C260.259 74.88 260.806 76.3067 260.806 77.88C260.806 80.6533 259.886 82.7867 258.046 84.28C256.206 85.7733 253.806 86.52 250.846 86.52C249.273 86.52 247.539 86.2533 245.646 85.72C243.779 85.16 242.193 84.4533 240.886 83.6C240.939 81.9733 241.153 79.7733 241.526 77C242.593 76.7867 243.873 76.68 245.366 76.68L246.206 81.48C247.673 81.9333 249.219 82.16 250.846 82.16ZM263.456 65.28C263.029 63.44 262.816 61.9867 262.816 60.92C262.816 59.8533 262.856 58.88 262.936 58H286.176C286.282 59.28 286.336 60.1467 286.336 60.6C286.336 61.7467 286.122 63.3067 285.696 65.28C284.922 65.4933 283.656 65.6 281.896 65.6L280.976 61.56H277.576C277.549 62.5733 277.429 69.44 277.216 82.16L280.096 82.52C280.096 83.7467 279.789 84.9067 279.176 86H269.456L269.096 83.8C270.936 83.1067 272.096 82.72 272.576 82.64C272.576 82.5333 272.416 75.52 272.096 61.6H268.136L267.256 65.52C265.682 65.52 264.416 65.44 263.456 65.28ZM304.612 58.44L304.652 58.84C304.652 59.9333 304.478 60.8667 304.132 61.64C303.785 61.9067 303.238 62.12 302.492 62.28L309.172 82.04L312.972 82.52C312.972 83.6133 312.665 84.7733 312.052 86H302.332L301.972 83.8C303.092 83.3733 303.825 83.0933 304.172 82.96L302.572 78.44H293.572C292.772 80.8133 292.345 82.0533 292.292 82.16L295.052 82.52C295.052 83.08 294.945 83.7333 294.732 84.48C294.518 85.2 294.318 85.7067 294.132 86H284.412L284.052 83.8C285.252 83.2933 286.332 82.92 287.292 82.68L294.012 62.12C292.225 61.8533 290.878 61.5067 289.972 61.08C289.972 60.3067 290.092 59.6267 290.332 59.04C290.892 58.8533 292.198 58.64 294.252 58.4C296.332 58.1333 298.305 58 300.172 58C302.065 58 303.545 58.1467 304.612 58.44ZM299.452 69.44L298.292 64.16H297.892L296.612 69.68L294.732 74.68H301.412L299.452 69.44ZM332.502 67.04L331.262 67L330.102 62.2C328.555 61.9333 327.395 61.8 326.622 61.8C325.102 61.8 323.395 62.1067 321.502 62.72C320.942 63.76 320.502 65.0933 320.182 66.72C319.862 68.3467 319.702 69.88 319.702 71.32C319.702 78.68 321.822 82.36 326.062 82.36C327.875 82.36 329.315 82.0933 330.382 81.56L331.222 76.68C332.902 76.68 334.182 76.7733 335.062 76.96C335.489 79.8667 335.702 82.2267 335.702 84.04C335.062 84.52 333.769 85.0533 331.822 85.64C329.902 86.2267 328.009 86.52 326.142 86.52C318.195 86.52 314.222 81.6133 314.222 71.8C314.222 67.1333 315.182 63.5867 317.102 61.16C319.049 58.7333 322.142 57.52 326.382 57.52C328.489 57.52 330.355 57.8267 331.982 58.44C333.422 58.9733 334.649 59.56 335.662 60.2C335.662 62.0133 335.462 64.2 335.062 66.76C334.315 66.9467 333.462 67.04 332.502 67.04ZM346.855 77.36L346.815 82.16L349.575 82.52C349.575 83.6133 349.268 84.7733 348.655 86H338.935L338.575 83.8C340.068 83.1867 341.188 82.8 341.935 82.64C341.935 82.56 341.815 75.5067 341.575 61.48L338.255 60.44L338.575 58H348.935C349.361 58.72 349.615 59.7733 349.695 61.16C348.335 61.3733 347.441 61.5067 347.015 61.56L346.895 70.6L354.775 61.56L352.255 61.16C352.255 60.36 352.495 59.3067 352.975 58H363.375C363.535 58.96 363.641 59.7733 363.695 60.44C362.281 60.9733 361.175 61.32 360.375 61.48L353.055 71L361.135 82.12L364.695 82.48C364.695 83.6 364.388 84.7733 363.775 86H358.055L349.815 74.16L346.855 77.36Z" fill="#310047" fill-opacity="0.7"/>
<g clip-path="url(#clip0_0_1)">
<path d="M84.764 208.182H79.057L75.981 201.069H62.9866L59.9106 208.185H54.2002L69.4847 176.382L84.764 208.182ZM69.4847 171L45 179.086L48.7337 209.08L69.4864 219.736L90.2443 209.09L93.9728 179.089L69.4847 171.002V171ZM65.0101 196.678H73.961L69.483 186.712L65.0101 196.678Z" fill="#310047" fill-opacity="0.7"/>
</g>
<g clip-path="url(#clip1_0_1)">
<mask id="mask0_0_1" style="mask-type:luminance" maskUnits="userSpaceOnUse" x="127" y="168" width="55" height="55">
<path d="M182 168H127V223H182V168Z" fill="white"/>
</mask>
<g mask="url(#mask0_0_1)">
<path d="M164.289 187.425L158.215 189.409L152.93 191.741L151.452 192.131C151.075 192.489 150.681 192.852 150.254 193.219C149.785 193.623 149.349 193.991 149.014 194.257C148.642 194.551 148.091 195.102 147.811 195.45C147.393 195.974 147.063 196.529 146.921 196.956C146.668 197.728 146.792 198.508 147.279 199.229C147.903 200.147 149.147 201.084 150.598 201.722C151.337 202.048 152.581 202.466 153.518 202.7C155.074 203.095 158.086 203.522 159.743 203.586C160.078 203.6 160.528 203.6 160.547 203.586C160.583 203.563 160.841 203.072 161.139 202.461C162.158 200.381 162.893 198.43 163.292 196.764C163.531 195.754 163.719 194.408 163.843 192.815C163.875 192.37 163.889 190.878 163.861 190.373C163.82 189.547 163.747 188.876 163.632 188.22C163.614 188.123 163.609 188.036 163.618 188.031C163.636 188.018 163.692 187.999 164.44 187.783L164.289 187.425ZM162.902 188.238C162.957 188.238 163.104 189.647 163.141 190.538C163.15 190.726 163.145 190.85 163.136 190.85C163.099 190.85 162.36 190.414 161.832 190.084C161.373 189.794 160.501 189.216 160.363 189.106C160.317 189.074 160.322 189.069 160.698 188.94C161.336 188.725 162.852 188.238 162.902 188.238ZM159.808 189.257C159.849 189.257 159.955 189.317 160.207 189.473C161.153 190.065 162.438 190.781 162.989 191.02C163.159 191.094 163.177 191.066 162.787 191.332C161.952 191.902 160.909 192.462 159.633 193.026C159.408 193.127 159.22 193.205 159.215 193.205C159.206 193.205 159.234 193.091 159.27 192.953C159.578 191.81 159.752 190.653 159.762 189.725C159.766 189.266 159.766 189.266 159.808 189.253C159.798 189.257 159.803 189.257 159.808 189.257ZM159.17 189.501C159.197 189.528 159.179 190.556 159.142 190.836C159.059 191.507 158.931 192.131 158.72 192.834C158.669 193.003 158.623 193.146 158.614 193.155C158.596 193.178 157.967 192.563 157.76 192.324C157.402 191.911 157.122 191.498 156.915 191.094C156.81 190.887 156.644 190.483 156.658 190.469C156.732 190.419 159.151 189.482 159.17 189.501ZM156.167 190.68C156.172 190.68 156.176 190.68 156.181 190.685C156.19 190.694 156.222 190.768 156.25 190.85C156.396 191.25 156.727 191.837 157.012 192.214C157.324 192.627 157.733 193.068 158.072 193.357C158.182 193.449 158.283 193.536 158.297 193.55C158.325 193.577 158.334 193.573 157.585 193.857C156.718 194.188 155.772 194.518 154.689 194.867C154.43 194.951 154.171 195.035 153.913 195.12C153.871 195.134 153.885 195.111 154.005 194.923C154.542 194.082 155.359 192.434 155.818 191.268C155.896 191.066 155.974 190.864 155.988 190.818C156.006 190.754 156.029 190.731 156.089 190.699C156.121 190.69 156.153 190.68 156.167 190.68ZM155.249 191.061C155.263 191.071 155.028 191.562 154.799 192.012C154.354 192.879 153.867 193.733 153.215 194.771C153.105 194.95 152.999 195.115 152.985 195.134C152.962 195.166 152.953 195.157 152.88 195.014C152.724 194.707 152.595 194.312 152.526 193.949C152.457 193.591 152.471 192.967 152.549 192.581C152.609 192.296 152.604 192.301 152.742 192.232C153.33 191.934 155.23 191.043 155.249 191.061ZM163.168 191.383V191.576C163.168 192.599 163.058 194.004 162.897 195.028C162.87 195.207 162.847 195.354 162.842 195.359C162.842 195.359 162.709 195.322 162.553 195.276C161.864 195.06 161.116 194.743 160.441 194.372C159.996 194.128 159.349 193.729 159.367 193.71C159.371 193.706 159.564 193.605 159.789 193.486C160.689 193.017 161.552 192.512 162.301 192.012C162.581 191.824 163.003 191.521 163.095 191.438L163.168 191.383ZM151.783 192.742C151.801 192.742 151.796 192.778 151.769 192.944C151.75 193.063 151.727 193.283 151.718 193.435C151.681 194.105 151.792 194.601 152.122 195.281C152.214 195.469 152.288 195.625 152.283 195.629C152.251 195.657 149.212 196.548 148.257 196.809C147.972 196.887 147.724 196.956 147.706 196.961C147.674 196.97 147.669 196.965 147.683 196.887C147.788 196.213 148.303 195.331 149.019 194.587C149.496 194.091 149.877 193.802 150.529 193.43C150.997 193.164 151.718 192.765 151.773 192.746C151.773 192.742 151.778 192.742 151.783 192.742ZM158.945 194.023C158.949 194.018 159.059 194.078 159.192 194.156C160.175 194.725 161.543 195.253 162.709 195.524L162.815 195.547L162.668 195.629C162.057 195.969 160.051 196.805 157.999 197.572C157.7 197.682 157.407 197.792 157.351 197.815C157.296 197.838 157.246 197.852 157.246 197.847C157.246 197.842 157.328 197.682 157.434 197.484C158.008 196.41 158.586 195.102 158.88 194.193C158.917 194.105 158.94 194.027 158.945 194.023ZM158.215 194.261C158.219 194.266 158.182 194.362 158.137 194.473C157.737 195.441 157.214 196.497 156.543 197.682C156.374 197.985 156.231 198.228 156.227 198.228C156.222 198.228 156.084 198.145 155.919 198.044C154.946 197.448 154.083 196.713 153.518 196.001L153.435 195.9L153.853 195.786C155.35 195.377 156.621 194.936 157.884 194.395C158.063 194.321 158.21 194.261 158.215 194.261ZM162.751 195.845C162.755 195.951 162.521 196.897 162.328 197.581C162.167 198.155 162.03 198.605 161.777 199.399C161.667 199.748 161.571 200.037 161.566 200.037C161.561 200.037 161.534 200.032 161.506 200.023C160.143 199.775 158.922 199.431 157.774 198.972C157.452 198.843 156.993 198.637 156.966 198.614C156.957 198.604 157.232 198.476 157.581 198.324C159.67 197.411 161.837 196.373 162.581 195.928C162.668 195.873 162.737 195.845 162.751 195.845ZM152.278 196.203C152.288 196.213 151.704 197.053 150.887 198.196C150.603 198.595 150.272 199.064 150.148 199.238C150.024 199.413 149.836 199.688 149.73 199.853L149.537 200.152L149.331 199.977C149.088 199.775 148.665 199.344 148.477 199.105C148.082 198.614 147.816 198.095 147.71 197.622C147.66 197.402 147.66 197.291 147.706 197.278C147.774 197.259 149 196.97 150.148 196.704C150.786 196.557 151.525 196.383 151.792 196.318C152.058 196.254 152.274 196.203 152.278 196.203ZM152.866 196.428L153.013 196.594C153.674 197.333 154.349 197.879 155.166 198.357C155.313 198.439 155.423 198.513 155.414 198.517C155.382 198.54 152.577 199.536 151.277 199.986C150.548 200.243 149.946 200.45 149.942 200.45C149.937 200.45 149.896 200.423 149.85 200.39L149.767 200.331L149.9 200.138C150.332 199.514 150.874 198.83 152.053 197.406L152.866 196.428ZM156.53 199.05C156.534 199.045 156.736 199.119 156.984 199.211C157.581 199.436 158.054 199.578 158.687 199.739C159.468 199.936 160.597 200.129 161.263 200.184C161.364 200.193 161.419 200.202 161.401 200.216C161.369 200.234 160.694 200.459 160.198 200.615C159.408 200.863 156.998 201.575 155.033 202.14C154.67 202.245 154.358 202.332 154.34 202.337C154.294 202.346 154.142 202.305 154.142 202.287C154.142 202.277 154.252 202.135 154.386 201.979C155.047 201.189 155.703 200.308 156.25 199.472C156.401 199.243 156.53 199.054 156.53 199.05ZM155.722 199.073C155.726 199.077 155.4 199.601 154.831 200.501C154.588 200.882 154.317 201.313 154.22 201.465C154.128 201.612 153.991 201.841 153.913 201.97L153.78 202.204L153.711 202.186C153.545 202.14 152.384 201.731 152.076 201.607C151.695 201.455 151.3 201.272 151.007 201.116C150.639 200.918 150.18 200.625 150.217 200.615C150.226 200.611 150.855 200.441 151.613 200.234C153.623 199.688 154.739 199.371 155.469 199.142C155.602 199.1 155.717 199.068 155.722 199.073ZM161.437 200.413H161.442C161.46 200.459 160.717 202.525 160.446 203.177C160.386 203.324 160.363 203.361 160.331 203.356C160.253 203.352 159.174 203.2 158.518 203.104C157.374 202.929 155.455 202.594 154.973 202.484L154.863 202.461L155.547 202.305C157.016 201.974 157.723 201.795 158.439 201.575C159.344 201.299 160.239 200.955 161.144 200.533C161.286 200.468 161.405 200.418 161.437 200.413Z" fill="#310047" fill-opacity="0.7"/>
<path d="M158.026 173.267C157.925 173.253 156.295 173.84 155.244 174.267C153.826 174.846 152.724 175.397 152.044 175.874C151.792 176.053 151.475 176.37 151.424 176.494C151.406 176.54 151.397 176.595 151.397 176.65L152.012 177.233L153.477 177.702L156.961 178.326L160.946 179.01L160.988 178.666C160.974 178.666 160.965 178.661 160.951 178.661L160.427 178.578L160.322 178.39C159.78 177.435 159.183 176.251 158.834 175.452C158.564 174.832 158.306 174.116 158.164 173.602C158.086 173.29 158.077 173.271 158.026 173.267ZM157.953 173.501H157.958C157.962 173.505 157.98 173.634 157.999 173.785C158.077 174.428 158.219 175.048 158.444 175.718C158.614 176.223 158.614 176.196 158.417 176.136C157.948 176.007 155.85 175.645 154.331 175.434C154.087 175.401 153.881 175.369 153.881 175.365C153.862 175.346 154.978 174.763 155.469 174.534C156.098 174.244 157.824 173.524 157.953 173.501ZM153.527 175.558L153.706 175.617C154.679 175.948 157.126 176.416 158.476 176.526C158.628 176.54 158.756 176.554 158.761 176.554C158.765 176.558 158.637 176.627 158.472 176.705C157.82 177.031 157.104 177.431 156.608 177.738C156.461 177.83 156.328 177.904 156.309 177.904C156.291 177.904 156.195 177.885 156.094 177.871L155.91 177.844L155.451 177.394C154.643 176.609 154.009 176.003 153.766 175.773L153.527 175.558ZM153.344 175.7L153.991 176.508C154.344 176.953 154.702 177.389 154.781 177.486C154.858 177.582 154.923 177.66 154.918 177.665C154.9 177.679 153.982 177.5 153.495 177.389C152.995 177.275 152.788 177.219 152.48 177.123L152.228 177.04V176.976C152.232 176.668 152.623 176.209 153.284 175.741L153.344 175.7ZM158.844 176.802C158.862 176.802 158.885 176.843 158.94 176.967C159.096 177.311 159.583 178.239 159.702 178.418C159.739 178.477 159.803 178.482 159.156 178.376C157.599 178.124 157.099 178.041 157.099 178.032C157.099 178.028 157.145 177.995 157.205 177.963C157.687 177.697 158.173 177.357 158.605 176.995C158.71 176.907 158.807 176.825 158.825 176.811C158.83 176.802 158.839 176.797 158.844 176.802Z" fill="#310047" fill-opacity="0.7"/>
<path d="M151.456 176.43C151.456 176.43 151.356 176.591 151.452 176.829C151.512 176.976 151.686 177.155 151.884 177.339C151.884 177.339 153.927 179.331 154.174 179.616C155.304 180.92 155.795 182.205 155.841 183.977C155.869 185.116 155.653 186.117 155.116 187.278C154.161 189.363 152.145 191.663 149.037 194.216L149.492 194.064C149.785 193.844 150.185 193.61 151.121 193.095C153.284 191.911 155.717 190.823 158.701 189.703C162.998 188.086 170.064 186.195 174.086 185.58L174.504 185.515L174.439 185.414C174.072 184.845 173.819 184.492 173.516 184.115C172.635 183.023 171.565 182.136 170.257 181.402C168.457 180.397 166.129 179.611 163.182 179.028C162.627 178.918 161.405 178.707 160.414 178.556C158.311 178.23 156.952 178.005 155.455 177.747C154.918 177.656 154.115 177.518 153.582 177.403C153.307 177.343 152.779 177.22 152.366 177.077C152.035 176.949 151.557 176.82 151.456 176.43ZM152.641 177.578C152.646 177.573 152.719 177.601 152.816 177.633C152.99 177.692 153.215 177.761 153.481 177.835C153.683 177.89 153.885 177.944 154.087 177.995C154.363 178.064 154.592 178.128 154.597 178.128C154.629 178.161 155.093 179.643 155.249 180.213C155.308 180.429 155.354 180.612 155.35 180.612C155.345 180.617 155.295 180.539 155.235 180.433C154.698 179.487 153.849 178.528 152.866 177.757C152.738 177.665 152.641 177.582 152.641 177.578ZM154.9 178.202C154.923 178.202 155.024 178.216 155.148 178.243C155.928 178.418 157.328 178.684 158.224 178.836C158.375 178.858 158.495 178.886 158.495 178.895C158.495 178.904 158.439 178.936 158.371 178.973C158.219 179.051 157.609 179.414 157.407 179.552C156.897 179.891 156.438 180.259 156.107 180.589C155.974 180.722 155.859 180.833 155.859 180.833C155.859 180.833 155.832 180.755 155.809 180.658C155.644 180.02 155.299 179.074 154.987 178.409C154.937 178.303 154.895 178.207 154.895 178.197C154.895 178.207 154.895 178.202 154.9 178.202ZM158.876 178.959C158.903 178.969 158.949 179.125 159.041 179.469C159.211 180.135 159.289 180.879 159.261 181.572C159.252 181.765 159.243 181.944 159.234 181.967L159.22 182.013L158.981 181.934C158.49 181.778 157.691 181.544 157.007 181.351C156.617 181.246 156.3 181.149 156.3 181.14C156.3 181.113 156.869 180.543 157.113 180.328C157.576 179.919 158.834 178.946 158.876 178.959ZM159.192 179.005C159.206 178.992 161.093 179.318 161.952 179.483C162.59 179.607 163.517 179.8 163.572 179.823C163.6 179.832 163.503 179.887 163.196 180.025C161.984 180.571 161.084 181.062 160.189 181.659C159.955 181.815 159.757 181.944 159.753 181.944C159.748 181.944 159.743 181.81 159.743 181.65C159.743 180.778 159.569 179.896 159.248 179.152C159.215 179.079 159.188 179.01 159.192 179.005ZM164.073 179.97C164.086 179.983 164.027 180.355 163.972 180.576C163.806 181.26 163.361 182.274 162.815 183.229C162.718 183.399 162.631 183.537 162.622 183.541C162.613 183.546 162.489 183.477 162.346 183.394C161.814 183.082 161.208 182.788 160.547 182.513C160.363 182.435 160.202 182.371 160.198 182.361C160.166 182.334 161.644 181.356 162.425 180.888C163.044 180.511 164.054 179.951 164.073 179.97ZM164.422 180.025C164.463 180.025 165.299 180.254 165.735 180.383C166.814 180.704 168.053 181.159 168.861 181.526L169.196 181.677L168.962 181.732C166.988 182.187 165.299 182.71 163.669 183.371C163.536 183.427 163.416 183.473 163.407 183.473C163.398 183.473 163.444 183.367 163.503 183.238C163.995 182.196 164.311 181.108 164.389 180.181C164.394 180.093 164.408 180.025 164.422 180.025ZM156.103 181.934C156.116 181.921 156.755 182.072 157.099 182.169C157.622 182.315 158.733 182.687 158.733 182.715C158.733 182.719 158.609 182.825 158.463 182.954C157.861 183.454 157.283 183.982 156.589 184.652C156.383 184.85 156.208 185.01 156.199 185.01C156.19 185.01 156.185 184.983 156.19 184.946C156.295 184.175 156.273 183.183 156.126 182.178C156.112 182.049 156.098 181.939 156.103 181.934ZM169.513 181.948C169.522 181.957 169.219 182.435 169.026 182.706C168.751 183.101 168.347 183.624 167.433 184.772C166.951 185.378 166.41 186.062 166.23 186.291C166.047 186.521 165.895 186.714 165.891 186.714C165.886 186.714 165.827 186.631 165.762 186.53C165.248 185.759 164.633 185.084 163.903 184.478C163.765 184.363 163.614 184.239 163.563 184.202C163.513 184.166 163.471 184.129 163.471 184.124C163.471 184.111 164.252 183.775 164.844 183.537C165.882 183.114 167.295 182.609 168.356 182.283C168.912 182.109 169.504 181.939 169.513 181.948ZM169.867 182.04C169.885 182.035 169.995 182.091 170.128 182.169C171.244 182.807 172.337 183.629 173.2 184.473C173.443 184.712 174.044 185.336 174.035 185.341C174.035 185.341 173.824 185.359 173.576 185.378C171.643 185.525 169.169 185.933 166.791 186.507C166.63 186.544 166.488 186.576 166.478 186.576C166.469 186.576 166.648 186.397 166.873 186.181C168.269 184.836 168.907 183.987 169.66 182.472C169.766 182.247 169.857 182.054 169.867 182.04C169.862 182.04 169.862 182.04 169.867 182.04ZM159.642 183.087C159.707 183.101 160.304 183.381 160.753 183.606C161.167 183.812 161.786 184.143 161.819 184.17C161.823 184.175 161.603 184.29 161.332 184.423C160.469 184.854 159.73 185.263 158.958 185.731C158.738 185.864 158.554 185.975 158.55 185.975C158.531 185.975 158.536 185.956 158.66 185.731C159.073 184.978 159.404 184.079 159.592 183.202C159.61 183.133 159.629 183.087 159.642 183.087ZM159.045 183.197C159.059 183.211 158.903 183.775 158.807 184.083C158.619 184.666 158.302 185.396 157.994 185.947C157.921 186.075 157.811 186.264 157.751 186.369L157.636 186.553L157.379 186.305C157.081 186.016 156.837 185.837 156.525 185.676C156.401 185.612 156.305 185.557 156.305 185.548C156.305 185.511 157.09 184.799 157.691 184.285C158.123 183.913 159.032 183.183 159.045 183.197ZM162.695 184.698L162.92 184.845C163.435 185.18 164.04 185.626 164.504 186.016C164.766 186.232 165.271 186.686 165.372 186.796L165.427 186.856L165.055 186.962C162.952 187.545 161.327 188.063 159.431 188.761C159.22 188.839 159.041 188.904 159.027 188.904C159 188.904 158.977 188.927 159.45 188.49C160.662 187.375 161.736 186.144 162.535 184.946L162.695 184.698ZM161.736 184.937C161.745 184.946 161.116 185.832 160.74 186.333C160.29 186.93 159.491 187.93 158.94 188.582C158.71 188.853 158.513 189.078 158.504 189.083C158.49 189.087 158.485 189.018 158.485 188.913C158.485 188.357 158.343 187.765 158.095 187.26C157.99 187.049 157.971 186.998 157.994 186.975C158.081 186.897 159.417 186.135 160.262 185.681C160.831 185.378 161.722 184.928 161.736 184.937ZM155.933 186.36C155.947 186.36 156.052 186.415 156.172 186.48C156.465 186.64 156.727 186.819 156.961 187.012C156.97 187.021 156.851 187.118 156.695 187.232C156.259 187.545 155.598 188.045 155.212 188.353C154.808 188.674 154.794 188.683 154.84 188.614C155.143 188.151 155.295 187.889 155.455 187.554C155.598 187.256 155.74 186.902 155.841 186.594C155.878 186.461 155.924 186.36 155.933 186.36ZM157.48 187.572C157.503 187.568 157.531 187.609 157.654 187.793C157.916 188.183 158.118 188.706 158.169 189.129L158.178 189.22L157.549 189.464C156.424 189.9 155.387 190.332 154.684 190.653C154.487 190.745 154.142 190.91 153.917 191.02C153.692 191.135 153.509 191.222 153.509 191.218C153.509 191.213 153.651 191.107 153.826 190.979C155.198 189.983 156.387 188.89 157.278 187.797C157.374 187.682 157.462 187.577 157.471 187.572L157.48 187.572ZM156.768 187.747C156.787 187.765 156.263 188.357 155.905 188.72C155.019 189.624 154.142 190.332 153.054 191.02C152.917 191.107 152.793 191.185 152.779 191.195C152.747 191.213 152.788 191.167 153.265 190.648C153.568 190.322 153.798 190.047 154.06 189.707C154.234 189.482 154.266 189.45 154.519 189.271C155.194 188.784 156.75 187.728 156.768 187.747Z" fill="#310047" fill-opacity="0.7"/>
<path d="M136.888 206.757C136.803 206.757 136.718 206.765 136.635 206.765C134.924 206.856 133.77 207.609 133.096 209.079C132.519 210.409 132.582 212.147 133.102 213.484C133.707 214.791 134.685 215.481 136.317 215.742C136.663 215.798 136.894 215.988 137.563 216.769L138.386 217.733H139.879L138.886 216.733C138.338 216.184 137.894 215.706 137.894 215.664C137.894 215.622 138.104 215.53 138.358 215.453C139.195 215.2 139.891 214.553 140.377 213.561C140.771 212.765 140.828 212.518 140.884 211.528C141.032 208.579 139.477 206.735 136.888 206.756L136.888 206.757ZM138.197 214.469C137.47 214.82 136.416 214.891 135.728 214.638C135.016 214.377 134.327 213.638 134.017 212.801C133.673 211.886 133.722 210.198 134.115 209.438C134.749 208.228 135.586 207.671 136.81 207.671C138.626 207.671 139.659 208.783 139.793 210.873C139.9 212.617 139.316 213.926 138.197 214.468L138.197 214.469ZM163.982 209.276C163.356 209.276 162.877 209.529 162.554 210.029L162.301 210.424V209.396H161.217V215.56H162.3V213.59C162.3 211.788 162.322 211.578 162.574 211.085C162.921 210.409 163.518 210.071 164.095 210.233L164.482 210.346V209.277H163.982V209.276ZM157.616 209.219C157.404 209.219 157.179 209.248 156.955 209.297C155.504 209.676 154.687 211.064 154.737 212.492C154.737 213.688 154.97 214.286 155.547 214.913C156.729 215.882 157.798 215.96 159.24 215.439C159.486 215.335 159.754 215.213 159.754 215.213V214.244L159.24 214.51C158.073 215.018 157.193 215.018 156.489 214.42C156.04 213.962 155.842 213.413 155.751 212.787H160.12V211.956C160.12 210.262 159.1 209.192 157.615 209.219H157.616ZM155.849 211.922C155.849 211.922 156.01 210.865 156.609 210.451C156.897 210.247 157.228 210.149 157.551 210.149C157.876 210.149 158.199 210.254 158.467 210.458C159.015 210.88 159.107 211.914 159.107 211.914H155.849L155.849 211.922ZM129.725 210.81C128.551 210.099 128.029 209.586 128.093 208.98C128.275 207.306 130.344 207.538 131.49 208.171L131.498 207.045C131.498 207.045 130.865 206.771 129.957 206.756C128.564 206.735 127.664 207.192 127.242 208.121C126.622 209.493 127.171 210.527 129.154 211.681C130.268 212.329 130.76 212.891 130.76 213.505C130.76 214.771 129.232 215.213 127.657 214.419C127.332 214.257 127.058 214.123 127.043 214.123C126.987 214.482 127.016 215.341 127.016 215.341C127.016 215.341 127.5 215.544 128.226 215.685C130.027 216.044 131.666 215.199 131.821 213.827C131.956 212.54 131.49 211.864 129.725 210.81L129.725 210.81ZM173.573 209.205C173.361 209.205 173.137 209.234 172.903 209.283C171.455 209.662 170.639 211.05 170.694 212.478C170.694 213.672 170.926 214.265 171.503 214.891C172.685 215.861 173.754 215.94 175.204 215.418C175.449 215.314 175.716 215.194 175.716 215.194V214.223L175.203 214.491C174.033 214.997 173.154 214.997 172.452 214.399C172 213.942 171.804 213.4 171.713 212.766H176.075V211.935C176.075 210.249 175.055 209.178 173.57 209.207L173.573 209.205ZM171.805 211.908C171.805 211.908 171.968 210.852 172.566 210.43C172.854 210.225 173.184 210.127 173.508 210.127C173.831 210.127 174.156 210.232 174.423 210.437C174.972 210.859 175.064 211.9 175.064 211.9H171.806L171.805 211.908ZM151.944 210.824C150.769 210.114 150.249 209.599 150.312 208.994C150.495 207.319 152.564 207.552 153.709 208.185L153.717 207.059C153.717 207.059 153.084 206.784 152.176 206.771C150.784 206.75 149.883 207.207 149.46 208.136C148.842 209.508 149.397 210.542 151.374 211.696C152.486 212.343 152.978 212.899 152.978 213.512C152.978 214.779 151.452 215.228 149.876 214.426C149.553 214.265 149.279 214.131 149.263 214.131C149.206 214.49 149.235 215.35 149.235 215.35C149.235 215.35 149.714 215.546 150.438 215.693C152.24 216.053 153.88 215.209 154.034 213.838C154.168 212.556 153.703 211.881 151.944 210.826L151.944 210.824ZM179.94 209.261C179.313 209.261 178.828 209.515 178.511 210.015L178.258 210.409V209.382H177.174V215.545H178.257V213.575C178.257 211.774 178.279 211.562 178.532 211.07C178.878 210.395 179.475 210.057 180.052 210.219L180.439 210.332V209.261L179.94 209.261ZM143.327 210.789V206.862H142.234V215.559H146.828V214.532H143.327L143.327 210.789ZM168.591 212.013L167.691 214.356L166.825 212L165.945 209.389H164.827C165.552 211.443 166.34 213.533 167.135 215.559C167.479 215.567 167.824 215.559 168.169 215.559L169.385 212.506L170.623 209.39H169.554C169.554 209.39 169.082 210.627 168.59 212.013L168.591 212.013ZM145.844 204.493C146.02 204.493 146.167 204.436 146.288 204.315C146.407 204.196 146.47 204.055 146.47 203.88C146.47 203.704 146.407 203.557 146.288 203.444C146.167 203.331 146.027 203.274 145.852 203.274C145.675 203.274 145.528 203.331 145.408 203.45C145.287 203.57 145.232 203.717 145.232 203.886C145.232 204.063 145.289 204.21 145.408 204.322C145.521 204.435 145.668 204.491 145.844 204.491V204.493ZM145.457 203.492C145.562 203.387 145.689 203.339 145.852 203.339C146.005 203.339 146.133 203.387 146.239 203.492C146.344 203.597 146.401 203.725 146.401 203.88C146.401 204.034 146.344 204.168 146.239 204.273C146.133 204.378 146.005 204.428 145.852 204.428C145.696 204.428 145.57 204.38 145.465 204.273C145.36 204.168 145.303 204.034 145.303 203.88C145.303 203.725 145.352 203.597 145.457 203.492ZM145.717 203.936H145.788C145.838 203.936 145.888 203.984 145.929 204.076L146.014 204.267H146.147L146.043 204.055C146 203.971 145.958 203.921 145.909 203.908C145.971 203.893 146.02 203.872 146.055 203.83C146.091 203.794 146.104 203.745 146.104 203.689C146.104 203.624 146.084 203.576 146.041 203.541C145.992 203.5 145.915 203.478 145.815 203.478H145.591V204.267H145.704V203.936L145.717 203.936ZM145.717 203.57H145.816C145.887 203.57 145.937 203.584 145.964 203.605C145.991 203.626 145.998 203.654 145.998 203.704C145.998 203.795 145.942 203.838 145.837 203.838H145.716V203.57H145.717ZM127.671 203.866C127.671 203.591 127.663 203.387 127.657 203.267H127.663C127.691 203.409 127.726 203.515 127.754 203.585L128.803 205.928H128.979L130.028 203.564C130.056 203.5 130.084 203.403 130.119 203.268H130.127C130.106 203.502 130.099 203.705 130.099 203.867V205.935H130.458V202.861H130.008L129.044 204.999C129.008 205.084 128.959 205.211 128.896 205.379H128.881C128.86 205.296 128.811 205.169 128.741 205.014L127.798 202.854H127.32V205.928H127.665V203.867L127.671 203.866ZM131.245 203.871H131.555V205.786H131.245V203.871ZM131.4 203.169C131.464 203.169 131.519 203.148 131.561 203.105C131.604 203.063 131.632 203.008 131.632 202.944C131.632 202.881 131.611 202.824 131.562 202.782C131.518 202.739 131.463 202.718 131.399 202.718C131.336 202.718 131.279 202.739 131.237 202.782C131.195 202.824 131.166 202.881 131.166 202.944C131.166 203.014 131.188 203.063 131.237 203.105C131.286 203.148 131.336 203.169 131.399 203.169H131.4ZM133.764 205.828V205.491C133.594 205.618 133.412 205.68 133.223 205.68C132.997 205.68 132.814 205.603 132.68 205.455C132.547 205.308 132.476 205.104 132.476 204.849C132.476 204.583 132.547 204.372 132.694 204.21C132.835 204.055 133.018 203.978 133.243 203.978C133.426 203.978 133.601 204.035 133.764 204.147V203.788C133.616 203.711 133.447 203.675 133.257 203.675C132.905 203.675 132.631 203.788 132.426 204.006C132.223 204.224 132.118 204.52 132.118 204.878C132.118 205.196 132.209 205.463 132.399 205.667C132.596 205.877 132.849 205.983 133.159 205.983C133.398 205.977 133.594 205.927 133.764 205.828ZM134.65 204.807C134.65 204.555 134.707 204.351 134.812 204.21C134.91 204.084 135.03 204.02 135.171 204.02C135.29 204.02 135.375 204.042 135.437 204.091V203.725C135.389 203.704 135.318 203.696 135.227 203.696C135.101 203.696 134.988 203.739 134.888 203.817C134.784 203.9 134.7 204.027 134.65 204.189H134.642V203.739H134.291V205.934H134.643V204.807H134.65ZM136.67 205.977C137.001 205.977 137.267 205.871 137.465 205.659C137.662 205.45 137.76 205.167 137.76 204.815C137.76 204.456 137.67 204.182 137.486 203.978C137.303 203.774 137.05 203.675 136.719 203.675C136.388 203.675 136.122 203.774 135.924 203.964C135.713 204.174 135.602 204.47 135.602 204.85C135.602 205.181 135.692 205.455 135.883 205.659C136.079 205.871 136.34 205.976 136.67 205.976V205.977ZM136.17 204.189C136.304 204.048 136.48 203.978 136.697 203.978C136.923 203.978 137.093 204.048 137.219 204.189C137.345 204.337 137.408 204.548 137.408 204.829C137.408 205.097 137.352 205.308 137.232 205.449C137.113 205.597 136.937 205.675 136.705 205.675C136.479 205.675 136.304 205.596 136.17 205.449C136.037 205.3 135.973 205.097 135.973 204.829C135.959 204.563 136.029 204.345 136.17 204.189ZM139.3 205.786C139.434 205.667 139.505 205.52 139.505 205.336C139.505 205.174 139.449 205.041 139.344 204.935C139.258 204.85 139.126 204.773 138.935 204.696C138.765 204.625 138.661 204.562 138.604 204.513C138.548 204.456 138.513 204.386 138.513 204.287C138.513 204.196 138.548 204.126 138.618 204.069C138.689 204.013 138.779 203.985 138.9 203.985C139.09 203.985 139.252 204.035 139.4 204.141V203.789C139.258 203.718 139.104 203.684 138.928 203.684C138.703 203.684 138.512 203.747 138.372 203.867C138.224 203.986 138.154 204.141 138.154 204.323C138.154 204.485 138.202 204.619 138.294 204.717C138.372 204.801 138.504 204.887 138.688 204.963C138.864 205.041 138.983 205.111 139.047 205.167C139.11 205.224 139.138 205.294 139.138 205.377C139.138 205.582 138.998 205.688 138.723 205.688C138.512 205.688 138.322 205.618 138.153 205.478V205.857C138.306 205.949 138.49 205.991 138.693 205.991C138.954 205.977 139.158 205.914 139.299 205.787L139.3 205.786ZM140.975 203.675C140.645 203.675 140.378 203.774 140.181 203.964C139.971 204.174 139.858 204.47 139.858 204.85C139.858 205.181 139.949 205.455 140.139 205.66C140.336 205.871 140.596 205.977 140.927 205.977C141.266 205.977 141.524 205.87 141.722 205.659C141.919 205.449 142.018 205.167 142.018 204.815C142.018 204.456 141.926 204.181 141.743 203.977C141.553 203.773 141.3 203.675 140.977 203.675L140.975 203.675ZM141.658 204.829C141.658 205.097 141.601 205.308 141.482 205.449C141.363 205.597 141.187 205.675 140.954 205.675C140.728 205.675 140.553 205.596 140.419 205.449C140.286 205.3 140.223 205.097 140.223 204.829C140.223 204.547 140.293 204.329 140.434 204.182C140.567 204.042 140.743 203.971 140.962 203.971C141.179 203.971 141.355 204.042 141.481 204.182C141.594 204.337 141.657 204.548 141.657 204.829H141.658ZM142.609 205.927H142.96V204.027H143.473V203.732H142.959V203.393C142.959 203.085 143.079 202.93 143.326 202.93C143.409 202.93 143.494 202.951 143.557 202.986V202.669C143.494 202.641 143.409 202.635 143.303 202.635C143.114 202.635 142.959 202.691 142.832 202.811C142.684 202.951 142.606 203.133 142.606 203.38V203.74H142.235V204.035H142.606V205.928L142.609 205.927ZM144.05 205.329C144.05 205.758 144.24 205.977 144.627 205.977C144.768 205.977 144.873 205.954 144.958 205.904V205.602C144.894 205.651 144.817 205.673 144.732 205.673C144.613 205.673 144.529 205.645 144.48 205.581C144.43 205.518 144.401 205.412 144.401 205.265V204.026H144.958V203.731H144.401V203.084C144.28 203.126 144.162 203.161 144.05 203.197V203.731H143.67V204.026H144.05V205.328L144.05 205.329ZM181.811 209.374C181.692 209.261 181.551 209.205 181.375 209.205C181.198 209.205 181.051 209.261 180.932 209.382C180.812 209.501 180.756 209.648 180.756 209.818C180.756 209.994 180.812 210.141 180.931 210.254C181.05 210.367 181.197 210.423 181.375 210.423C181.55 210.423 181.698 210.367 181.819 210.247C181.937 210.126 182 209.987 182 209.812C181.994 209.634 181.93 209.487 181.811 209.374L181.811 209.374ZM181.755 210.205C181.65 210.31 181.523 210.359 181.368 210.359C181.214 210.359 181.087 210.31 180.98 210.205C180.876 210.099 180.819 209.966 180.819 209.81C180.819 209.657 180.867 209.529 180.974 209.423C181.079 209.318 181.206 209.269 181.368 209.269C181.521 209.269 181.648 209.318 181.755 209.423C181.86 209.529 181.917 209.657 181.917 209.81C181.917 209.973 181.868 210.099 181.755 210.205ZM181.438 209.846C181.501 209.832 181.552 209.803 181.587 209.769C181.622 209.732 181.635 209.683 181.635 209.627C181.635 209.564 181.615 209.514 181.572 209.479C181.524 209.439 181.445 209.417 181.346 209.417H181.122V210.204H181.235V209.874H181.305C181.353 209.874 181.401 209.922 181.445 210.014L181.529 210.204H181.663L181.558 209.992C181.522 209.9 181.48 209.858 181.437 209.844L181.438 209.846ZM181.361 209.775H181.24V209.509H181.34C181.409 209.509 181.459 209.522 181.487 209.544C181.515 209.565 181.522 209.592 181.522 209.642C181.522 209.733 181.465 209.775 181.36 209.775L181.361 209.775ZM161.731 203.641H161.83V202.852H162.09V202.754H161.471V202.852H161.731L161.731 203.641ZM162.328 203.048C162.328 202.972 162.328 202.909 162.322 202.873C162.329 202.915 162.343 202.944 162.35 202.965L162.653 203.641H162.701L163.004 202.958C163.012 202.937 163.019 202.91 163.033 202.873C163.026 202.944 163.026 203 163.026 203.043V203.64H163.131V202.754H163.004L162.73 203.366C162.724 203.387 162.702 203.43 162.688 203.479H162.68C162.674 203.45 162.66 203.422 162.64 203.374L162.365 202.754H162.223V203.642H162.322V203.049L162.328 203.048Z" fill="#310047" fill-opacity="0.7"/>
</g>
</g>
<path d="M251.101 194.415H252.629L252.43 196.074H250.908L251.101 194.415ZM263.998 185.107V205.893C263.946 207.205 263.195 208.379 261.876 209.158L241.621 219.551C240.454 220.15 238.544 220.15 237.377 219.551L217.122 209.158C215.892 208.442 215.091 207.287 215 205.893V185.107C215 183.91 215.955 182.44 217.122 181.842L237.377 171.449C238.544 170.85 240.454 170.85 241.621 171.449L261.876 181.842C263.102 182.577 263.951 183.847 263.998 185.107ZM253.643 202.761L246.575 199.127C241.86 205.834 231.447 202.556 231.333 195.5C231.713 187.844 242.308 185.601 246.574 191.873L253.643 188.238C244.431 175.069 223.07 181.328 223.166 195.5C223.576 210.779 245.525 215.285 253.643 202.761ZM255.331 193.26H254.119L254.337 191.385H252.991L252.767 193.26H251.235L251.454 191.385H250.108L249.883 193.26H248.6V194.415H249.745L249.546 196.074H248.223V197.23H249.408L249.163 199.28H250.534L250.773 197.23H252.292L252.046 199.28H253.418L253.656 197.23H254.954V196.074H253.791L253.984 194.415H255.331V193.26Z" fill="#310047" fill-opacity="0.7"/>
<g clip-path="url(#clip2_0_1)">
<mask id="mask1_0_1" style="mask-type:luminance" maskUnits="userSpaceOnUse" x="297" y="168" width="55" height="55">
<path d="M352 168H297V223H352V168Z" fill="white"/>
</mask>
<g mask="url(#mask1_0_1)">
<path d="M352 188.098H346.344V205.434H343.079V188.098H337.436V185.256H352V188.098ZM336.298 205.434H325.249V185.256H335.86V188.098H328.515V193.813H335.282V196.641H328.515V202.609H336.298V205.434ZM320.925 205.434H317.355L307.954 190.603C307.719 190.234 307.521 189.842 307.363 189.434H307.28C307.354 189.867 307.39 190.791 307.39 192.207V205.434H304.235V185.256H308.037L317.123 199.74C317.506 200.338 317.753 200.753 317.863 200.977H317.918C317.827 200.443 317.781 199.536 317.781 198.261V185.254H320.925V205.434ZM300.981 203.846C300.981 204.096 300.929 204.343 300.829 204.574C300.729 204.804 300.582 205.014 300.397 205.19C300.212 205.367 299.993 205.507 299.751 205.602C299.509 205.697 299.251 205.746 298.989 205.746C298.728 205.746 298.469 205.697 298.227 205.601C297.986 205.506 297.767 205.365 297.582 205.189C297.397 205.012 297.251 204.802 297.151 204.572C297.051 204.341 297 204.094 297 203.844C297.001 203.341 297.21 202.858 297.583 202.502C297.956 202.146 298.462 201.946 298.989 201.946C299.251 201.946 299.509 201.995 299.751 202.09C299.993 202.186 300.212 202.326 300.397 202.502C300.582 202.679 300.729 202.888 300.829 203.119C300.929 203.349 300.981 203.597 300.981 203.846Z" fill="#310047" fill-opacity="0.7"/>
</g>
</g>
<defs>
<clipPath id="clip0_0_1">
<rect width="49" height="49" fill="white" transform="translate(45 171)"/>
</clipPath>
<clipPath id="clip1_0_1">
<rect width="55" height="55" fill="white" transform="translate(127 168)"/>
</clipPath>
<clipPath id="clip2_0_1">
<rect width="55" height="55" fill="white" transform="translate(297 168)"/>
</clipPath>
</defs>
</svg>
