<svg width="388" height="277" viewBox="0 0 388 277" fill="none" xmlns="http://www.w3.org/2000/svg">
<rect width="388" height="277" rx="41" fill="#A64278"/>
<g clip-path="url(#clip0_0_1)">
<path d="M246.197 122.052C237.926 143.17 218.129 158.039 195.023 158.039C188.225 158.039 181.71 156.745 175.689 154.394C176.558 152.625 177.002 150.422 177.002 147.767C177.002 145.893 176.545 142.632 175.633 137.985C174.339 131.463 173.741 123.822 173.834 115.073C175.8 117.127 177.809 118.68 179.874 119.738C181.932 120.796 184.046 121.322 186.197 121.322C189.408 121.322 193.205 119.979 197.593 117.294C201.982 114.609 206.616 109.85 211.504 103.032C211.935 109.733 213.205 114.442 215.313 117.164C217.421 119.88 220.25 121.242 223.794 121.242C227.337 121.242 230.357 119.701 232.706 116.62C235.054 113.538 236.638 107.957 237.451 99.8639H234.505C234.025 104.331 233.273 107.32 232.243 108.83C231.214 110.339 230.099 111.094 228.903 111.094C227.941 111.094 227.035 110.642 226.173 109.733C225.31 108.83 224.663 107.351 224.231 105.296C223.701 102.401 223.442 97.327 223.442 90.0815V50.234C233.532 56.5886 241.532 66.2163 246.099 77.7189H261.513C252.545 48.4768 226.413 27.3094 195.572 27.3094C157.316 27.3094 126.308 59.8556 126.308 100C126.308 140.144 157.316 172.691 195.572 172.691C226.499 172.691 252.687 151.418 261.587 122.052H246.203H246.197ZM211.51 44.6034V97.9519C208.009 102.116 204.558 105.136 201.156 107.01C197.753 108.885 194.807 109.82 192.311 109.82C190.203 109.82 188.096 109.034 185.988 107.462C183.88 105.89 182.419 103.75 181.599 101.033C180.786 98.317 180.379 93.8806 180.379 87.7178V44.0403C185.045 42.7038 189.951 41.9799 195.017 41.9799C200.761 41.9799 206.302 42.9018 211.51 44.6034ZM139.707 100.006C139.707 78.1272 151.251 59.0759 168.299 49.1883V107.642C168.299 112.715 168.009 118.872 167.436 126.117C167.097 130.343 166.259 135.293 164.921 140.974C164.348 143.51 164.059 145.62 164.059 147.316C164.059 147.588 164.071 147.854 164.083 148.12C149.378 137.688 139.707 120.035 139.707 100.012V100.006Z" fill="#8D7FAC" stroke="#8D7FAC" stroke-miterlimit="10"/>
</g>
<path d="M52.0227 224V200.727H61.2045C62.9697 200.727 64.4735 201.064 65.7159 201.739C66.9583 202.405 67.9053 203.333 68.5568 204.523C69.2159 205.705 69.5455 207.068 69.5455 208.614C69.5455 210.159 69.2121 211.523 68.5455 212.705C67.8788 213.886 66.9129 214.807 65.6477 215.466C64.3902 216.125 62.8674 216.455 61.0795 216.455H55.2273V212.511H60.2841C61.2311 212.511 62.0114 212.348 62.625 212.023C63.2462 211.689 63.7083 211.231 64.0114 210.648C64.322 210.057 64.4773 209.379 64.4773 208.614C64.4773 207.841 64.322 207.167 64.0114 206.591C63.7083 206.008 63.2462 205.557 62.625 205.239C62.0038 204.913 61.2159 204.75 60.2614 204.75H56.9432V224H52.0227ZM101.534 212.364C101.534 214.902 101.053 217.061 100.091 218.841C99.1364 220.621 97.8333 221.981 96.1818 222.92C94.5379 223.852 92.6894 224.318 90.6364 224.318C88.5682 224.318 86.7121 223.848 85.0682 222.909C83.4242 221.97 82.125 220.61 81.1705 218.83C80.2159 217.049 79.7386 214.894 79.7386 212.364C79.7386 209.826 80.2159 207.667 81.1705 205.886C82.125 204.106 83.4242 202.75 85.0682 201.818C86.7121 200.879 88.5682 200.409 90.6364 200.409C92.6894 200.409 94.5379 200.879 96.1818 201.818C97.8333 202.75 99.1364 204.106 100.091 205.886C101.053 207.667 101.534 209.826 101.534 212.364ZM96.5455 212.364C96.5455 210.72 96.2992 209.333 95.8068 208.205C95.322 207.076 94.6364 206.22 93.75 205.636C92.8636 205.053 91.8258 204.761 90.6364 204.761C89.447 204.761 88.4091 205.053 87.5227 205.636C86.6364 206.22 85.947 207.076 85.4545 208.205C84.9697 209.333 84.7273 210.72 84.7273 212.364C84.7273 214.008 84.9697 215.394 85.4545 216.523C85.947 217.652 86.6364 218.508 87.5227 219.091C88.4091 219.674 89.447 219.966 90.6364 219.966C91.8258 219.966 92.8636 219.674 93.75 219.091C94.6364 218.508 95.322 217.652 95.8068 216.523C96.2992 215.394 96.5455 214.008 96.5455 212.364ZM112.585 224V200.727H121.767C123.525 200.727 125.025 201.042 126.267 201.67C127.517 202.292 128.468 203.174 129.119 204.318C129.778 205.455 130.108 206.792 130.108 208.33C130.108 209.875 129.775 211.205 129.108 212.318C128.441 213.424 127.475 214.273 126.21 214.864C124.953 215.455 123.43 215.75 121.642 215.75H115.494V211.795H120.847C121.786 211.795 122.566 211.667 123.188 211.409C123.809 211.152 124.271 210.765 124.574 210.25C124.884 209.735 125.04 209.095 125.04 208.33C125.04 207.557 124.884 206.905 124.574 206.375C124.271 205.845 123.805 205.443 123.176 205.17C122.555 204.89 121.771 204.75 120.824 204.75H117.506V224H112.585ZM125.153 213.409L130.938 224H125.506L119.847 213.409H125.153ZM140.105 204.784V200.727H159.219V204.784H152.094V224H147.23V204.784H140.105ZM173.784 224H168.511L176.545 200.727H182.886L190.909 224H185.636L179.807 206.045H179.625L173.784 224ZM173.455 214.852H185.909V218.693H173.455V214.852ZM201.116 224V200.727H216.526V204.784H206.037V210.33H215.503V214.386H206.037V224H201.116ZM248.628 212.364C248.628 214.902 248.147 217.061 247.185 218.841C246.23 220.621 244.927 221.981 243.276 222.92C241.632 223.852 239.783 224.318 237.73 224.318C235.662 224.318 233.806 223.848 232.162 222.909C230.518 221.97 229.219 220.61 228.264 218.83C227.31 217.049 226.832 214.894 226.832 212.364C226.832 209.826 227.31 207.667 228.264 205.886C229.219 204.106 230.518 202.75 232.162 201.818C233.806 200.879 235.662 200.409 237.73 200.409C239.783 200.409 241.632 200.879 243.276 201.818C244.927 202.75 246.23 204.106 247.185 205.886C248.147 207.667 248.628 209.826 248.628 212.364ZM243.639 212.364C243.639 210.72 243.393 209.333 242.901 208.205C242.416 207.076 241.73 206.22 240.844 205.636C239.957 205.053 238.92 204.761 237.73 204.761C236.541 204.761 235.503 205.053 234.616 205.636C233.73 206.22 233.041 207.076 232.548 208.205C232.063 209.333 231.821 210.72 231.821 212.364C231.821 214.008 232.063 215.394 232.548 216.523C233.041 217.652 233.73 218.508 234.616 219.091C235.503 219.674 236.541 219.966 237.73 219.966C238.92 219.966 239.957 219.674 240.844 219.091C241.73 218.508 242.416 217.652 242.901 216.523C243.393 215.394 243.639 214.008 243.639 212.364ZM259.679 224V200.727H264.599V219.943H274.577V224H259.679ZM290.162 200.727V224H285.241V200.727H290.162ZM323.003 212.364C323.003 214.902 322.522 217.061 321.56 218.841C320.605 220.621 319.302 221.981 317.651 222.92C316.007 223.852 314.158 224.318 312.105 224.318C310.037 224.318 308.181 223.848 306.537 222.909C304.893 221.97 303.594 220.61 302.639 218.83C301.685 217.049 301.207 214.894 301.207 212.364C301.207 209.826 301.685 207.667 302.639 205.886C303.594 204.106 304.893 202.75 306.537 201.818C308.181 200.879 310.037 200.409 312.105 200.409C314.158 200.409 316.007 200.879 317.651 201.818C319.302 202.75 320.605 204.106 321.56 205.886C322.522 207.667 323.003 209.826 323.003 212.364ZM318.014 212.364C318.014 210.72 317.768 209.333 317.276 208.205C316.791 207.076 316.105 206.22 315.219 205.636C314.332 205.053 313.295 204.761 312.105 204.761C310.916 204.761 309.878 205.053 308.991 205.636C308.105 206.22 307.416 207.076 306.923 208.205C306.438 209.333 306.196 210.72 306.196 212.364C306.196 214.008 306.438 215.394 306.923 216.523C307.416 217.652 308.105 218.508 308.991 219.091C309.878 219.674 310.916 219.966 312.105 219.966C313.295 219.966 314.332 219.674 315.219 219.091C316.105 218.508 316.791 217.652 317.276 216.523C317.768 215.394 318.014 214.008 318.014 212.364Z" fill="white"/>
<defs>
<clipPath id="clip0_0_1">
<rect width="136" height="146" fill="white" transform="translate(126 27)"/>
</clipPath>
</defs>
</svg>
