<svg width="104" height="104" viewBox="0 0 104 104" fill="none" xmlns="http://www.w3.org/2000/svg">
<g clip-path="url(#clip0_102_18)">
<path d="M76.6222 49.6973H79.8646L79.4431 53.2188H76.2119L76.6222 49.6973ZM103.996 29.9422V74.0578C103.885 76.8439 102.292 79.3344 99.4924 80.9892L56.5008 103.047C54.0243 104.318 49.9712 104.318 47.4947 103.047L4.50307 80.9892C1.89385 79.4689 0.192676 77.0176 0 74.0578V29.9422C0 27.4007 2.0262 24.2814 4.50307 23.0108L47.4947 0.953162C49.9712 -0.317721 54.0243 -0.317721 56.5008 0.953162L99.4924 23.0108C102.093 24.571 103.895 27.2681 103.996 29.9422ZM82.0185 67.4116L67.0163 59.6971C57.0088 73.9332 34.9075 66.9764 34.6652 52.0001C35.4722 35.7505 57.9589 30.9908 67.0152 44.3023L82.0174 36.5875C62.4661 8.63721 17.1289 21.9196 17.3326 52.0001C18.2015 84.4295 64.788 93.9931 82.0185 67.4116ZM85.6 47.2452H83.0279L83.4915 43.2656H80.6344L80.1581 47.2452H76.9078L77.3714 43.2656H74.5143L74.0379 47.2452H71.3143V49.6973H73.7444L73.3229 53.2188H70.5143V55.6708H73.0294L72.5085 60.0234H75.4192L75.9263 55.6708H79.1496L78.6286 60.0234H81.5394L82.0464 55.6708H84.8V53.2188H82.3321L82.7423 49.6973H85.6V47.2452Z" fill="#310047" fill-opacity="0.7"/>
</g>
<defs>
<clipPath id="clip0_102_18">
<rect width="104" height="104" fill="white"/>
</clipPath>
</defs>
</svg>
