<svg width="50" height="50" viewBox="0 0 50 50" fill="none" xmlns="http://www.w3.org/2000/svg">
<path d="M27.2552 45.0816C26.6644 45.5357 26.3406 46.2143 26.3406 46.9082V48.2959H24.5456C24.5456 48.2959 24.5342 47.9388 24.5342 47.301C24.5342 46.7704 24.6478 46.25 24.858 45.75C25.3579 44.5918 25.4488 43.3419 25.4488 43.1327V37.3725C25.2954 37.3725 25.142 37.3725 25.0114 37.3725C24.5626 37.3725 24.1082 37.3623 23.6708 37.3521V43.1123C23.6708 43.5051 23.3754 44.3163 23.1311 45.0663C23.0913 45.0306 22.8698 44.9745 22.8073 44.9388C21.3247 43.7704 18.9275 41.199 18.5924 37.0561C10.3442 36.2092 3.68098 33.7449 0 30.3419V39.5561C0.113611 45.3265 11.2531 50 25 50C38.7469 50 49.8864 45.3265 50 39.551V30.3674C46.3133 33.7755 39.6501 36.2398 31.3906 37.0817C31.0157 41.4949 28.6753 43.9847 27.2552 45.0816Z" fill="#310047" fill-opacity="0.7"/>
<path d="M0 10.2297C0.0568053 4.55622 11.0429 -0.0254041 24.5342 0.000106014C38.0254 0.0256162 48.9093 4.64295 48.8525 10.3215C48.79 15.995 37.8096 20.5766 24.3183 20.5511C10.9123 20.5256 0.0624858 15.9593 0 10.3215V10.2297Z" fill="#310047" fill-opacity="0.7"/>
<path d="M18.598 35.0357C19.0241 30.7449 21.9893 27.2551 23.6594 25.5919V35.3725C24.0968 35.3827 24.5512 35.3929 25 35.3929C25.1534 35.3929 25.3067 35.3929 25.4374 35.3929V24.6888C26.3008 25.4184 31.0782 28.949 31.4304 35.0459C42.0586 33.8623 49.9091 29.8011 49.9886 24.9541V15.7399C45.4215 19.9746 36.1736 22.7552 25 22.7552C13.8264 22.7552 4.60123 19.9746 0 15.7195V24.9337C0.0795274 29.7807 7.95274 33.8521 18.598 35.0357Z" fill="#310047" fill-opacity="0.7"/>
</svg>
