<svg width="50" height="50" viewBox="0 0 50 50" fill="none" xmlns="http://www.w3.org/2000/svg">
<path d="M36.9235 22.2502C29.6939 22.2502 23.8469 28.4469 23.8469 36.1089C23.8469 43.7709 29.6939 50 36.9235 50C44.153 50 50 43.7709 50 36.1089C50 28.4469 44.153 22.2502 36.9235 22.2502ZM28.6735 27.6628H30.1684C30.1684 27.7007 30.153 27.7872 30.1684 27.7926C30.8775 28.1711 31.4235 28.847 32.3061 28.8956C33.7602 28.9714 34.852 29.8095 35.9439 30.6746C37.7398 32.0967 38.8163 34.0271 39.6428 36.1467C39.852 36.6874 40.1071 37.239 40.4081 37.731C40.5867 38.023 40.8673 38.3096 41.1735 38.4448C42.5867 39.0612 43.8061 39.9426 44.903 41.2295C44 41.4296 43.1939 41.608 42.2755 41.8135C42.4541 42.019 42.5408 42.1541 42.6735 42.2677C43.4694 42.9544 44.2806 43.6627 45.0867 44.3386C45.1837 44.4198 45.3367 44.4468 45.4541 44.5009V44.5982C44.7398 44.2089 44.0102 43.8628 43.3163 43.4302C42.7959 43.1112 42.2602 42.7381 41.852 42.2947C41.2347 41.635 41.3265 41.4242 42.1888 41.2241C42.7755 41.0889 43.3877 41.024 44.0204 40.9321C43.9898 40.8402 43.9745 40.7374 43.9286 40.705C43 40.0291 42.1224 39.2505 40.9643 38.9909C40.3214 38.8449 39.9796 38.4069 39.7092 37.823C39.0357 36.3576 38.4133 34.8706 37.602 33.4864C36.5459 31.6858 34.9898 30.3989 33.051 29.631C32.9643 29.5986 32.8622 29.5283 32.7755 29.5337C31.6224 29.6418 30.7908 28.8848 29.8418 28.4306C29.7041 28.3657 29.5561 28.2684 29.4133 28.2684C29.2347 28.2684 28.9898 28.3117 28.8928 28.4306C28.801 28.5442 28.8265 28.7929 28.8928 28.9497C29.0051 29.2147 29.2143 29.4364 29.352 29.6959C29.7347 30.4097 30.0816 31.1126 30.4541 31.8318C30.8316 32.5671 31.2398 33.3133 31.5867 34.0649C31.6786 34.2596 31.6888 34.5786 31.6173 34.7787C31.2347 35.8115 31.1275 36.8334 31.3112 37.9203C31.4133 38.5151 31.5765 39.0666 32.1377 39.537C32.4898 38.634 32.2551 37.6283 33.0867 37.0443C33.699 38.2015 34.3265 39.364 34.949 40.5428C34.9081 40.5806 34.8367 40.6077 34.7959 40.6401C34.2296 39.8993 33.6888 39.1694 33.0867 38.3745C33.0306 38.7151 33.0051 39.0342 32.903 39.3153C32.801 39.5857 32.6582 39.948 32.4439 40.0291C32.2347 40.1048 31.8367 39.9534 31.6479 39.7696C30.9949 39.1207 30.7806 38.2285 30.7908 37.3417C30.801 36.5523 30.9337 35.752 31.0969 34.9788C31.1786 34.584 31.1581 34.3407 30.9439 33.973C30.5204 33.2376 30.2245 32.4212 29.8724 31.6425C29.6837 31.2207 29.5357 30.7665 29.2602 30.4097C28.6275 29.5824 27.9949 28.7767 28.6735 27.6628ZM31.9439 30.6368C32.1173 30.7233 32.3418 30.7557 32.4337 30.8963C32.5408 31.0639 32.5204 31.3235 32.5561 31.5452C32.4949 31.5506 32.4388 31.5722 32.3724 31.5776C32.199 31.3127 32.0255 31.0315 31.852 30.7665C31.8775 30.7233 31.9184 30.6854 31.9439 30.6368Z" fill="#310047" fill-opacity="0.7"/>
<path d="M22.8673 0.00491155C9.80612 0.167128 -0.443878 4.02247 0.0153061 8.6186C0.47449 13.2201 11.4541 16.843 24.5204 16.6808C37.5867 16.5185 47.801 12.6686 47.3418 8.06707C46.8827 3.46553 35.9337 -0.151898 22.8673 0.00491155ZM0.0153061 9.3648V18.4651C-0.00510204 18.6598 -0.00510204 18.8815 0.0153061 19.0816C0.47449 23.6831 11.4541 27.2735 24.5204 27.1113C24.551 27.1113 24.5816 27.1113 24.6122 27.1113C26.5714 24.332 29.4031 22.1691 32.8622 21.1201C37.051 19.8548 41.352 20.4712 44.898 22.4827C46.3469 21.4499 47.2245 20.2928 47.3418 19.0816H47.3724V9.94878C46.9388 14.2854 37.0204 17.8217 24.5204 17.9785C11.4592 18.1407 0.505102 14.5503 0.0459183 9.94878C0.0255102 9.75412 0.0255102 9.55946 0.0459183 9.3648H0.0153061ZM0.0153061 20.017V29.1498C-0.00510204 29.3444 -0.00510204 29.5337 0.0153061 29.7338C0.438776 33.9946 9.90306 37.3796 21.6786 37.731C21.4439 34.5191 22.1786 31.3722 23.6633 28.6631C10.9847 28.6577 0.489796 25.0998 0.0459183 20.601C0.0255102 20.4063 0.0255102 20.2117 0.0459183 20.017H0.0153061ZM47.3724 20.6334C47.2857 21.5202 46.7857 22.3637 45.9694 23.1586C46.449 23.483 46.9286 23.8129 47.3724 24.1968V20.6334ZM0.0153061 30.7017V39.802C-0.00510204 39.9967 -0.00510204 40.1859 0.0153061 40.386C0.47449 44.9875 11.4541 48.6103 24.5204 48.4481C25.2806 48.4373 26.0408 48.4157 26.7806 48.3832C24.7194 46.4745 23.102 43.9926 22.2602 41.0673C22.0918 40.4833 21.9643 39.9047 21.8622 39.3208C10.0051 39.0017 0.47449 35.5736 0.0459183 31.291C0.0255102 31.0964 0.0255102 30.9017 0.0459183 30.7071H0.0153061V30.7017Z" fill="#310047" fill-opacity="0.7"/>
</svg>
