<svg width="50" height="50" viewBox="0 0 50 50" fill="none" xmlns="http://www.w3.org/2000/svg">
<g clip-path="url(#clip0_5_52)">
<path d="M38.7259 0H11.2741C5.05741 0 0 5.05741 0 11.2741V38.7259C0 44.9426 5.05741 50 11.2741 50H38.7259C44.9426 50 50 44.9426 50 38.7259V11.2741C50 5.05741 44.9426 0 38.7259 0ZM48.1481 38.7259C48.1481 43.9213 43.9213 48.1481 38.7259 48.1481H11.2741C6.0787 48.1481 1.85185 43.9213 1.85185 38.7259V11.2741C1.85185 6.0787 6.0787 1.85185 11.2741 1.85185H38.7259C43.9213 1.85185 48.1481 6.0787 48.1481 11.2741V38.7259Z" fill="#310047" fill-opacity="0.7"/>
<path d="M18.4444 11.1111H9.51852V37.037H12.1852V28.5185H18.7037C19.963 28.5185 21.0491 28.2907 21.963 27.8333C22.8759 27.3769 23.5556 26.8472 24 26.2407C24.4444 25.6361 24.7963 24.8583 25.0556 23.9074C25.3148 22.9574 25.4685 22.1667 25.5185 21.5361C25.5676 20.9065 25.5926 20.1602 25.5926 19.2954C25.5926 16.8509 25.0056 14.8759 23.8333 13.3704C22.6602 11.8639 20.8639 11.1111 18.4444 11.1111ZM22.9074 20.9259C22.8944 21.2963 22.8083 21.8519 22.6481 22.5935C22.488 23.3343 22.2648 23.9019 21.9815 24.2972C21.6972 24.6926 21.2463 25.062 20.6296 25.4083C20.012 25.7528 19.2593 25.9259 18.3704 25.9259H12.1852V13.7037H18.2222C21.3574 13.7037 22.9259 15.5806 22.9259 19.3333C22.9259 20.025 22.9194 20.5556 22.9074 20.9259Z" fill="#310047" fill-opacity="0.7"/>
<path d="M38.1667 27.2593C37.1907 26.8639 36.2093 26.5065 35.2222 26.1852C34.2343 25.8639 33.3454 25.4694 32.5556 25C31.7648 24.5315 31.3704 23.8889 31.3704 23.0741C31.3704 22.3333 31.6852 21.7222 32.3148 21.2417C32.9444 20.7593 33.9009 20.5194 35.1852 20.5194C36.4685 20.5194 37.5056 20.8287 38.2963 21.4454L39.1481 19.1111L38.7037 18.8518C38.4074 18.6787 37.913 18.5 37.2222 18.3148C36.5306 18.1296 35.7898 18.037 35 18.037C32.7528 18.037 31.1296 18.5731 30.1296 19.6472C29.1296 20.7213 28.6296 21.8824 28.6296 23.1296C28.6296 24.3768 29.0861 25.4315 30 26.2963C30.7407 27.037 31.5991 27.5806 32.5741 27.9259C33.5491 28.2722 34.5185 28.5991 35.4815 28.9074C36.4444 29.2167 37.2593 29.6361 37.9259 30.1667C38.5926 30.6972 38.9259 31.4139 38.9259 32.3148C38.9259 33.2157 38.537 33.9074 37.7593 34.388C36.9815 34.8704 36.0611 35.1102 35 35.1102C33.9389 35.1102 33 34.8574 32.1852 34.3509C31.3704 33.8454 30.913 33.1352 30.8148 32.2213L28.2222 32.3324C28.2713 33.8139 28.9009 35.0611 30.1111 36.0731C31.3204 37.0852 32.9935 37.5917 35.1296 37.5917C37.2648 37.5917 38.8889 37.0787 40 36.0556C41.1111 35.0315 41.6667 33.8278 41.6667 32.4444C41.6667 31.062 41.3269 29.9509 40.6481 29.1111C39.9694 28.2713 39.1417 27.6546 38.1667 27.2593Z" fill="#310047" fill-opacity="0.7"/>
</g>
<defs>
<clipPath id="clip0_5_52">
<rect width="50" height="50" fill="white"/>
</clipPath>
</defs>
</svg>
