<svg width="40" height="40" viewBox="0 0 40 40" fill="none" xmlns="http://www.w3.org/2000/svg">
<path fill-rule="evenodd" clip-rule="evenodd" d="M40 13.2864C40 10.5775 39.0134 8.36193 37.3753 6.62635C37.6382 5.99745 38.5139 3.47299 37.122 0.0573886C37.122 0.0573886 34.9798 -0.609284 30.1019 2.60187C28.0634 2.05074 25.8778 1.77519 23.7066 1.7663C21.5354 1.77519 19.3498 2.05074 17.3138 2.60187C12.4334 -0.609284 10.2889 0.0573886 10.2889 0.0573886C8.89688 3.47299 9.77504 5.99745 10.0379 6.62635C8.40232 8.36193 7.40843 10.5775 7.40843 13.2864C7.40843 22.7976 13.3719 24.9266 19.0434 25.5532C19.0434 25.5532 14.9665 27.8798 14.9665 31.791C13.5118 32.4266 7.35535 34.3733 5.07563 30.5799C5.07563 30.5799 3.72709 28.1977 1.16272 28.0221C1.16272 28.0221 -1.33172 27.991 0.986611 29.531C0.986611 29.531 2.66083 30.2954 3.82359 33.1622C3.82359 33.1622 5.11663 39.2022 14.8845 36.4889C14.9834 36.5355 14.9206 39.4111 14.9206 40H32.4974C32.4974 40 32.5264 34.2289 32.5264 32.3933C32.5264 27.8798 29.2551 26.2999 28.336 25.5332C34.0269 24.9198 40 22.8221 40 13.2864Z" fill="#4F42B9"/>
</svg>
