<svg width="40" height="40" viewBox="0 0 40 40" fill="none" xmlns="http://www.w3.org/2000/svg">
<g clip-path="url(#clip0_16_21)">
<path fill-rule="evenodd" clip-rule="evenodd" d="M9.96328 12.5156V40H0.000750005V12.5156H9.96328ZM24.9811 12.4648V14.0843C26.4354 13.1457 28.1126 12.6 30.6558 12.6C38.9386 12.6 40 19.0306 40 24.6326V39.9993H29.9874V25.3986C29.9874 22.943 29.1088 22.4774 27.4843 22.4774C25.9398 22.4774 24.9811 22.968 24.9811 25.3986V39.9993H14.9686V12.4648H24.9811ZM4.98126 0C7.72971 0 9.96248 2.2353 9.96248 4.98123C9.96248 7.72718 7.72971 9.9624 4.98124 9.9624C2.23533 9.9624 0 7.72718 0 4.98122C0 2.23531 2.2353 0 4.98126 0Z" fill="#4F42B9"/>
</g>
<defs>
<clipPath id="clip0_16_21">
<rect width="40" height="40" fill="white"/>
</clipPath>
</defs>
</svg>
