<svg width="50" height="50" viewBox="0 0 50 50" fill="none" xmlns="http://www.w3.org/2000/svg">
<path fill-rule="evenodd" clip-rule="evenodd" d="M12.4541 15.6445V50H0.000937506V15.6445H12.4541ZM31.2264 15.581V17.6054C33.0443 16.4321 35.1407 15.75 38.3197 15.75C48.6733 15.75 50 23.7882 50 30.7907V49.9991H37.4843V31.7482C37.4843 28.6787 36.386 28.0967 34.3554 28.0967C32.4248 28.0967 31.2264 28.71 31.2264 31.7482V49.9991H18.7107V15.581H31.2264ZM6.22657 0C9.66214 0 12.4531 2.79412 12.4531 6.22654C12.4531 9.65898 9.66214 12.453 6.22655 12.453C2.79416 12.453 0 9.65898 0 6.22652C0 2.79414 2.79413 0 6.22657 0Z" fill="#8033A3"/>
</svg>
