<svg width="40" height="40" viewBox="0 0 40 40" fill="none" xmlns="http://www.w3.org/2000/svg">
<g clip-path="url(#clip0_16_14)">
<path d="M28.9063 23.8802C28.4115 23.6458 26.0417 22.4739 25.599 22.2917C25.1562 22.1093 24.8438 22.0573 24.5052 22.5521C24.1667 23.0468 23.2553 24.1146 22.9688 24.4531C22.6823 24.7917 22.4219 24.8177 21.9271 24.4531C20.5059 23.8828 19.1934 23.0724 18.0469 22.0573C17.009 21.0801 16.1303 19.9466 15.4428 18.6979C15.1563 18.2292 15.4428 17.9688 15.6511 17.7083C15.8594 17.4479 16.1198 17.1614 16.3803 16.875C16.5707 16.6273 16.7283 16.3559 16.849 16.0677C16.9136 15.9337 16.9471 15.7868 16.9471 15.638C16.9471 15.4893 16.9136 15.3423 16.849 15.2083C16.849 14.9739 15.7553 12.6042 15.3386 11.6406C14.9219 10.6771 14.5573 10.8073 14.2708 10.8073H13.2292C12.7329 10.8267 12.2647 11.042 11.9271 11.4063C11.3822 11.9263 10.9506 12.5532 10.6593 13.2478C10.368 13.9423 10.2233 14.6896 10.2344 15.4427C10.3676 17.2916 11.0474 19.0592 12.1875 20.5208C14.2796 23.6288 17.1418 26.141 20.4948 27.8125C21.6407 28.3073 22.5261 28.5938 23.2292 28.8281C24.2165 29.1266 25.2602 29.189 26.276 29.0104C26.9508 28.8735 27.5902 28.5995 28.1546 28.2053C28.7191 27.8111 29.1965 27.3051 29.5573 26.7188C29.8576 25.9947 29.9566 25.2028 29.8438 24.4271C29.7135 24.2448 29.4011 24.1146 28.9063 23.8802Z" fill="#4F42B9"/>
<path d="M33.7761 6.14578C31.9751 4.32778 29.8282 2.88882 27.4622 1.91379C25.0962 0.938758 22.5589 0.447408 20 0.4687C16.6102 0.486442 13.2842 1.39327 10.3545 3.0986C7.42482 4.80394 4.99379 7.2481 3.30427 10.187C1.61474 13.1258 0.725858 16.4566 0.726392 19.8465C0.726917 23.2364 1.61685 26.5668 3.30729 29.5052L0.703125 39.5312L10.9636 36.927C13.8001 38.4705 16.979 39.2765 20.2083 39.2707H20C23.8487 39.2958 27.6177 38.1741 30.8264 36.0485C34.0351 33.9229 36.5379 30.8899 38.0158 27.3362C39.4938 23.7824 39.8798 19.869 39.1247 16.0949C38.3696 12.3209 36.5076 8.85733 33.7761 6.14578ZM20 35.9374C17.1108 35.9397 14.2753 35.1566 11.7968 33.6718L11.224 33.3332L5.13021 34.9218L6.74479 28.9843L6.38021 28.3853C4.30041 25.036 3.52242 21.0397 4.19387 17.1547C4.86532 13.2697 6.93949 9.76633 10.0228 7.30928C13.1062 4.85225 16.9842 3.6125 20.921 3.82526C24.8578 4.03802 28.5797 5.68848 31.3802 8.4635C32.8816 9.95283 34.0716 11.726 34.8808 13.6798C35.6901 15.6337 36.1024 17.7289 36.0937 19.8437C36.0868 24.1099 34.3891 28.1994 31.3724 31.2161C28.3557 34.2327 24.2662 35.9306 20 35.9374Z" fill="#4F42B9"/>
</g>
<defs>
<clipPath id="clip0_16_14">
<rect width="40" height="40" fill="white"/>
</clipPath>
</defs>
</svg>
